<svg width="12" height="12" viewBox="0 0 12 12" fill="none" xmlns="http://www.w3.org/2000/svg">
<g id="apple">
<g id="Group">
<path id="Vector" d="M10.2181 3.83824C9.48072 4.30147 9.0253 5.09559 9.0253 5.97794C9.0253 6.97059 9.61084 7.875 10.5 8.25C10.3265 8.82353 10.0663 9.35294 9.74096 9.83823C9.26386 10.5221 8.76506 11.2279 8.02771 11.2279C7.29036 11.2279 7.07349 10.7868 6.20602 10.7868C5.36024 10.7868 5.05663 11.25 4.36265 11.25C3.66867 11.25 3.19157 10.6103 2.6494 9.81618C1.93374 8.71323 1.52169 7.43382 1.5 6.08824C1.5 3.90441 2.88795 2.73529 4.2759 2.73529C5.01325 2.73529 5.62048 3.22059 6.0759 3.22059C6.50964 3.22059 7.20361 2.71324 8.02771 2.71324C8.89518 2.69118 9.71928 3.11029 10.2181 3.83824ZM7.63735 1.78676C8.00602 1.34559 8.20121 0.794118 8.22289 0.220588C8.22289 0.154412 8.22289 0.0661765 8.2012 0C7.57229 0.0661765 6.98675 0.375 6.5747 0.860294C6.20602 1.27941 5.98916 1.80882 5.96747 2.38235C5.96747 2.44853 5.96747 2.51471 5.98916 2.58088C6.03253 2.58088 6.09759 2.60294 6.14096 2.60294C6.72651 2.55882 7.26867 2.25 7.63735 1.78676Z" fill="#E6E6E6"/>
</g>
</g>
</svg>
