<?xml version="1.0" encoding="UTF-8"?>
<svg id="Layer_1" data-name="Layer 1" xmlns="http://www.w3.org/2000/svg" viewBox="0 0 420 455">
  <defs>
    <style>
      .cls-1 {
        fill: #fff;
      }
    </style>
  </defs>
  <path class="cls-1" d="M402.5,192.5c4.64,0,9.09-1.84,12.38-5.12,3.29-3.28,5.12-7.73,5.12-12.38V87.5c.02-3.6-1.08-7.12-3.15-10.07s-5-5.18-8.4-6.38L215.95,1.05c-3.84-1.4-8.05-1.4-11.9,0L11.55,71.05c-3.39,1.2-6.33,3.43-8.4,6.38C1.08,80.38-.02,83.9,0,87.5v87.5c0,4.64,1.84,9.09,5.12,12.38,3.28,3.29,7.73,5.12,12.38,5.12H52.5v157.5H17.5C7.84,350,0,357.84,0,367.5v70c0,7.84,7.84,17.5,17.5,17.5H402.5c9.66,0,17.5-7.84,17.5-17.5v-70c0-7.84-7.84-17.5-17.5-17.5h-35V192.5h35ZM159.84,96.25c3.12-5.41,8.9-8.75,15.16-8.75h70c6.25,0,12.03,3.34,15.16,8.75,3.13,5.41,3.12,12.09,0,17.5-3.12,5.41-8.9,8.75-15.16,8.75h-70c-6.25,0-12.03-3.34-15.16-8.75-3.13-5.41-3.12-12.09,0-17.5Zm-37.34,96.25h52.5v157.5h-52.5V192.5Zm175,157.5h-52.5V192.5h52.5v157.5Z"/>
</svg>