<?xml version="1.0" encoding="UTF-8"?>
<svg id="Layer_1" data-name="Layer 1" xmlns="http://www.w3.org/2000/svg" viewBox="0 0 513.34 450.8">
  <defs>
    <style>
      .cls-1 {
        fill: #fff;
      }
    </style>
  </defs>
  <path class="cls-1" d="M510.21,213.73L393.54,11.66h0c-4.17-7.22-11.87-11.66-20.21-11.66H140c-8.34,0-16.04,4.45-20.21,11.66L3.12,213.73h0c-4.17,7.22-4.17,16.12,0,23.34l116.67,202.07h0c4.17,7.22,11.87,11.66,20.21,11.66h233.34c8.34,0,16.04-4.45,20.21-11.66l116.67-202.07h0c2.05-3.55,3.13-7.57,3.13-11.67s-1.08-8.12-3.13-11.67Zm-253.54,105c-24.75,0-48.49-9.83-66-27.34s-27.34-41.24-27.34-66,9.83-48.49,27.34-66,41.24-27.34,66-27.34,48.49,9.83,66,27.34,27.34,41.24,27.34,66-9.83,48.49-27.34,66-41.24,27.34-66,27.34Z"/>
</svg>