<svg xmlns="http://www.w3.org/2000/svg" width="26.708" height="14.838" viewBox="0 0 26.708 14.838">
  <path id="copy-link-w" d="M10.386,14.838H6.677A6.685,6.685,0,0,1,0,8.161V6.677A6.685,6.685,0,0,1,6.677,0h3.709a1.484,1.484,0,0,1,0,2.968H6.677A3.712,3.712,0,0,0,2.968,6.677V8.161A3.712,3.712,0,0,0,6.677,11.87h3.709a1.484,1.484,0,0,1,0,2.968m9.645,0H16.322a1.484,1.484,0,0,1,0-2.968h3.709A3.712,3.712,0,0,0,23.74,8.161V6.677a3.712,3.712,0,0,0-3.709-3.709H16.322a1.484,1.484,0,0,1,0-2.968h3.709a6.685,6.685,0,0,1,6.677,6.677V8.161a6.685,6.685,0,0,1-6.677,6.677M17.806,8.9H8.9a1.484,1.484,0,1,1,0-2.968h8.9a1.484,1.484,0,0,1,0,2.968" fill="#fff" fill-rule="evenodd"/>
</svg>
