<?xml version="1.0" encoding="UTF-8"?>
<svg id="Layer_1" data-name="Layer 1" xmlns="http://www.w3.org/2000/svg" viewBox="0 0 78.6 77.49">
  <defs>
    <style>
      .cls-1 {
        fill: #fff;
      }
    </style>
  </defs>
  <path class="cls-1" d="M29.3,1.18c-7.4,2.1-12.7,5.4-18.4,11.4C5,18.98,1.4,26.98,.6,35.28l-.6,6.4H3c2.9,0,3-.1,3.6-6,1.3-11.7,7.8-20.9,18.4-26.2,5.8-2.8,7.7-3.3,14.3-3.3s8.5,.5,14.1,3.2c3.6,1.8,7.4,4.2,8.4,5.3,1.8,2,1.8,2.1-1.5,5.5l-3.4,3.5h21.4V2.28l-5.2,5.1-5.3,5.2-4.3-3.9C55.2,1.28,40.5-1.92,29.3,1.18Z"/>
  <path class="cls-1" d="M72,41.58c-1,11.5-8.1,21.7-18.6,26.8-4.8,2.4-6.8,2.8-14.1,2.8-7.1-.1-9.4-.5-14.1-2.8-3-1.5-6.6-3.8-7.9-5.2l-2.4-2.5,3.4-3.5,3.4-3.5H.3v21.4l5.3-5.2,5.3-5.2,2.8,2.9c1.5,1.6,4.9,4,7.4,5.4,24.3,12.9,54.3-3.3,56.9-30.6l.6-6.7h-3c-3,0-3,.1-3.6,5.9Z"/>
  <path class="cls-1" d="M36.12,20.71c0,2.99,0,3.03-1.01,3.03-1.45,0-3.84,1.09-5.21,2.34-3.39,3.19-3.55,9.33-.32,12.72,1.98,2.1,3.11,2.46,8.64,2.71,4.6,.16,5.25,.28,6.02,1.09,1.17,1.17,1.17,3.11,0,4.28-.81,.81-1.25,.89-6.02,.89h-5.13l-.12-1.53-.12-1.49h-5.61v8.88h8.88v6.06h6.06v-6.06h1.13c.61,0,1.82-.36,2.71-.77,6.54-3.03,6.78-12.64,.4-16.11-.85-.48-2.71-.73-6.34-.89-4.6-.16-5.25-.28-6.02-1.09-1.17-1.17-1.17-3.11,0-4.28,.81-.81,1.25-.89,6.02-.89h5.13l.12,1.49,.12,1.53h5.61v-8.88h-8.88v-6.06h-6.06v3.03Z"/>
</svg>