<svg width="20" height="20" viewBox="0 0 20 20" fill="none" xmlns="http://www.w3.org/2000/svg">
<g id="share">
<path id="icon" d="M14.1667 13.4C13.5334 13.4 12.9667 13.65 12.5334 14.0416L6.59175 10.5833C6.63341 10.3916 6.66675 10.2 6.66675 9.99996C6.66675 9.79996 6.63341 9.60829 6.59175 9.41663L12.4667 5.99163C12.9167 6.40829 13.5084 6.66663 14.1667 6.66663C15.5475 6.66663 16.6667 5.54734 16.6667 4.16663C16.6667 2.78591 15.5475 1.66663 14.1667 1.66663C12.786 1.66663 11.6667 2.78591 11.6667 4.16663C11.6667 4.36663 11.7001 4.55829 11.7417 4.74996L5.86675 8.17496C5.41675 7.75829 4.82508 7.49996 4.16675 7.49996C2.78604 7.49996 1.66675 8.61925 1.66675 9.99996C1.66675 11.3807 2.78604 12.5 4.16675 12.5C4.82508 12.5 5.41675 12.2416 5.86675 11.825L11.8001 15.2833C11.7584 15.4583 11.7334 15.6416 11.7334 15.8333C11.7334 17.175 12.8251 18.2583 14.1667 18.2583C15.5084 18.2583 16.6001 17.175 16.6001 15.8333C16.6001 14.4894 15.5106 13.4 14.1667 13.4Z" fill="#00EFC3"/>
</g>
</svg>
