<svg width="20" height="20" viewBox="0 0 20 20" fill="none" xmlns="http://www.w3.org/2000/svg">
<g id="Dollar Coin" clip-path="url(#clip0_244_2733)">
<path id="Vector" fill-rule="evenodd" clip-rule="evenodd" d="M9.99992 2.50004C5.85779 2.50004 2.49992 5.85791 2.49992 10C2.49992 14.1422 5.85779 17.5 9.99992 17.5C14.1421 17.5 17.4999 14.1422 17.4999 10C17.4999 5.85791 14.1421 2.50004 9.99992 2.50004ZM0.833252 10C0.833252 4.93743 4.93731 0.833374 9.99992 0.833374C15.0625 0.833374 19.1666 4.93743 19.1666 10C19.1666 15.0626 15.0625 19.1667 9.99992 19.1667C4.93731 19.1667 0.833252 15.0626 0.833252 10Z" fill="#F2F2F2"/>
<path id="Vector_2" fill-rule="evenodd" clip-rule="evenodd" d="M9.16675 5.17665C7.81551 5.48149 6.66675 6.51194 6.66675 7.95829C6.66675 8.86821 7.16646 9.52838 7.77453 9.96471C8.36358 10.3875 9.10933 10.6478 9.81075 10.8115C10.3837 10.9452 10.8914 11.1417 11.2362 11.3867C11.5686 11.6228 11.6667 11.8362 11.6667 12.0416C11.6667 12.5591 11.0862 13.25 10.0001 13.25C8.91391 13.25 8.33341 12.5591 8.33341 12.0416H6.66675C6.66675 13.488 7.81551 14.5185 9.16675 14.8233V15.8333H10.8334V14.8233C12.1847 14.5185 13.3334 13.488 13.3334 12.0416C13.3334 11.1195 12.8066 10.4579 12.2015 10.028C11.6087 9.60688 10.8665 9.34638 10.1894 9.18846C9.585 9.04738 9.08075 8.85071 8.74625 8.61071C8.43075 8.38429 8.33341 8.17597 8.33341 7.95829C8.33341 7.44078 8.91391 6.74996 10.0001 6.74996C11.0862 6.74996 11.6667 7.44078 11.6667 7.95829H13.3334C13.3334 6.51194 12.1847 5.48149 10.8334 5.17665V4.16663H9.16675V5.17665Z" fill="#F2F2F2"/>
</g>
<defs>
<clipPath id="clip0_244_2733">
<rect width="20" height="20" fill="white"/>
</clipPath>
</defs>
</svg>
