<svg width="20" height="20" viewBox="0 0 20 20" fill="none" xmlns="http://www.w3.org/2000/svg">
<g id="desktop">
<path id="icon" fill-rule="evenodd" clip-rule="evenodd" d="M17.4983 2.5H2.50033C2.04012 2.5 1.66699 2.87308 1.66699 3.33333V14.1667C1.66699 14.6269 2.04012 15 2.50033 15H9.16679V16.6667H6.25002C6.01992 16.6667 5.83335 16.8532 5.83335 17.0833V17.9167C5.83335 18.1468 6.01992 18.3333 6.25002 18.3333H13.7486C13.9787 18.3333 14.1653 18.1468 14.1653 17.9167V17.0833C14.1653 16.8532 13.9787 16.6667 13.7486 16.6667H10.8335V15H17.4983C17.9585 15 18.3316 14.6269 18.3316 14.1667V3.33333C18.3316 2.87308 17.9585 2.5 17.4983 2.5ZM3.33346 4.16667V13.3333H16.6668L16.6652 4.16667H3.33346Z" fill="#F2F2F2"/>
</g>
</svg>
