<?xml version="1.0" encoding="UTF-8"?>
<svg width="40" height="40" viewBox="0 0 40 40" fill="none" xmlns="http://www.w3.org/2000/svg">
<g clip-path="url(#clip0_204_1563)">
<rect width="40" height="40" rx="20" fill="white" fill-opacity="0.1"/>
<path d="M20 25.6375C20.5221 25.6375 20.9453 25.2143 20.9453 24.6922L20.9453 19.725C20.9453 19.2029 20.5221 18.7625 20 18.7625C19.4779 18.7625 19.0547 19.2029 19.0547 19.725L19.0547 24.6922C19.0547 25.2143 19.4779 25.6375 20 25.6375Z" fill="#F2F2F2"/>
<path d="M20 17.1125C20.7442 17.1125 21.3475 16.4817 21.3475 15.7375C21.3475 14.9933 20.7442 14.3625 20 14.3625C19.2558 14.3625 18.6525 14.9933 18.6525 15.7375C18.6525 16.4817 19.2558 17.1125 20 17.1125Z" fill="#F2F2F2"/>
<path fill-rule="evenodd" clip-rule="evenodd" d="M20 31C26.0751 31 31 26.0751 31 20C31 13.9249 26.0751 9 20 9C13.9249 9 9 13.9249 9 20C9 26.0751 13.9249 31 20 31ZM29.1094 20C29.1094 25.031 25.031 29.1094 20 29.1094C14.969 29.1094 10.8906 25.031 10.8906 20C10.8906 14.969 14.969 10.8906 20 10.8906C25.031 10.8906 29.1094 14.969 29.1094 20Z" fill="#F2F2F2"/>
</g>
<defs>
<clipPath id="clip0_204_1563">
<rect width="40" height="40" rx="20" fill="white"/>
</clipPath>
</defs>
</svg>