<svg id="international-bank-w" xmlns="http://www.w3.org/2000/svg" width="69.904" height="69.903" viewBox="0 0 69.904 69.903">
  <path id="Path_28" data-name="Path 28" d="M180.737,137.628l-21.845-17.477a1.988,1.988,0,0,0-2.621,0l-21.845,17.477a2.068,2.068,0,0,0-.655,2.4,2.1,2.1,0,0,0,1.966,1.529h6.554v17.477h-4.37a2.063,2.063,0,0,0-2.184,2.184v6.554a2.063,2.063,0,0,0,2.184,2.184h39.321a2.063,2.063,0,0,0,2.184-2.184v-6.554a2.063,2.063,0,0,0-2.184-2.184h-4.37V141.56h6.554a2.1,2.1,0,0,0,1.966-1.529,1.811,1.811,0,0,0-.655-2.4Zm-34.078,3.932h4.37v17.477h-4.37Zm8.738,17.477V141.56h4.37v17.477Zm19.661,6.554H140.105v-2.184h34.952Zm-6.554-6.554h-4.37V141.56h4.37Zm-26.432-21.846,15.511-12.452,15.511,12.452Z" transform="translate(-111.707 -100.055)" fill="#fff"/>
  <path id="Path_29" data-name="Path 29" d="M26.214,45.875a2.063,2.063,0,0,0-2.184-2.184c-1.748,0-4.37-3.495-5.68-10.923h5.679a2.184,2.184,0,1,0,0-4.368H17.693a27.931,27.931,0,0,1-.218-4.37,27.931,27.931,0,0,1,.218-4.37h12.67a27.921,27.921,0,0,1,.218,4.37,2.184,2.184,0,0,0,4.368,0,27.931,27.931,0,0,0-.218-4.37h8.957a.8.8,0,0,0,.655-.218h1.093A2.5,2.5,0,0,0,46.964,16.6a10.705,10.705,0,0,0-.873-2.4A24.327,24.327,0,0,0,24.028,0a24.029,24.029,0,0,0,0,48.059,2.063,2.063,0,0,0,2.184-2.184h0ZM13.325,28.4H4.805a26.945,26.945,0,0,1-.437-4.37,26.763,26.763,0,0,1,.437-4.37h8.52c0,1.311-.218,2.839-.218,4.37A27.921,27.921,0,0,0,13.325,28.4Zm10.7-24.03c1.748,0,4.37,3.495,5.68,10.923H18.13c1.53-7.427,4.152-10.923,5.9-10.923ZM41.505,15.291H34.078A31.851,31.851,0,0,0,31.239,5.9,18.808,18.808,0,0,1,41.505,15.291ZM16.6,5.9a31.881,31.881,0,0,0-2.839,9.393H6.334A19.571,19.571,0,0,1,16.6,5.9ZM6.334,32.768h7.427A31.851,31.851,0,0,0,16.6,42.16,19.58,19.58,0,0,1,6.334,32.768Z" fill="#fff"/>
</svg>
