<svg width="20" height="20" viewBox="0 0 20 20" fill="none" xmlns="http://www.w3.org/2000/svg">
<g id="people">
<path id="icon" d="M16.9755 15.8838C17.5505 15.3496 17.9163 14.5955 17.9163 13.7513C17.9163 12.143 16.608 10.8346 14.9997 10.8346C13.3913 10.8346 12.083 12.143 12.083 13.7513C12.083 14.5955 12.4488 15.3496 13.0238 15.8838C11.7922 16.3288 10.833 17.1846 10.833 18.3346H12.4997C12.4997 17.8363 13.6772 17.2038 14.9997 17.2038C16.3222 17.2038 17.4997 17.8371 17.4997 18.3346H19.1663C19.1663 17.1846 18.2072 16.3288 16.9755 15.8838ZM14.9997 12.5013C15.6888 12.5013 16.2497 13.0621 16.2497 13.7513C16.2497 14.4405 15.6888 15.0013 14.9997 15.0013C14.3105 15.0013 13.7497 14.4405 13.7497 13.7513C13.7497 13.0621 14.3105 12.5013 14.9997 12.5013ZM6.97551 15.8838C8.20717 16.3288 9.16634 17.1846 9.16634 18.3346H7.49967C7.49967 17.8363 6.32217 17.2038 4.99967 17.2038C3.67717 17.2038 2.49967 17.8363 2.49967 18.3346H0.833008C0.833008 17.1846 1.79217 16.3288 3.02384 15.8838C2.44884 15.3496 2.08301 14.5955 2.08301 13.7513C2.08301 12.143 3.39134 10.8346 4.99967 10.8346C6.60801 10.8346 7.91634 12.143 7.91634 13.7513C7.91634 14.5955 7.55051 15.3496 6.97551 15.8838ZM4.99967 12.5013C4.31051 12.5013 3.74967 13.0621 3.74967 13.7513C3.74967 14.4405 4.31051 15.0013 4.99967 15.0013C5.68884 15.0013 6.24967 14.4405 6.24967 13.7513C6.24967 13.0621 5.68884 12.5013 4.99967 12.5013ZM12.4997 9.16797C12.4997 8.66964 11.3222 8.03714 9.99967 8.03714C8.67717 8.03714 7.49967 8.66964 7.49967 9.16797H5.83301C5.83301 8.01797 6.79217 7.16214 8.02384 6.71714C7.44884 6.1838 7.08301 5.4288 7.08301 4.58464C7.08301 2.9763 8.39134 1.66797 9.99967 1.66797C11.608 1.66797 12.9163 2.9763 12.9163 4.58464C12.9163 5.4288 12.5505 6.1838 11.9755 6.71714C13.2072 7.16214 14.1663 8.01797 14.1663 9.16797H12.4997ZM9.99967 3.33464C9.31051 3.33464 8.74967 3.89547 8.74967 4.58464C8.74967 5.2738 9.31051 5.83464 9.99967 5.83464C10.6888 5.83464 11.2497 5.2738 11.2497 4.58464C11.2497 3.89547 10.6888 3.33464 9.99967 3.33464Z" fill="#00EFC3"/>
</g>
</svg>
