<?xml version="1.0" encoding="utf-8"?>
<!-- Generator: Adobe Illustrator 27.0.1, SVG Export Plug-In . SVG Version: 6.00 Build 0)  -->
<svg version="1.1" id="Layer_1" xmlns="http://www.w3.org/2000/svg" xmlns:xlink="http://www.w3.org/1999/xlink" x="0px" y="0px"
	 viewBox="0 0 38.5 38.5" style="enable-background:new 0 0 38.5 38.5;" xml:space="preserve">
<style type="text/css">
	.st0{fill:#FFFFFF;}
</style>
<g id="light-dark-theme" transform="translate(0.004 31.643) rotate(-90)">
	<path id="Path_33" class="st0" d="M12.4,34.4c-0.8,0-1.4,0.6-1.4,1.4c0,0,0,0,0,0v1.4c0,0.8,0.6,1.4,1.4,1.4c0.8,0,1.4-0.6,1.4-1.4
		c0,0,0,0,0,0v-1.4C13.8,35,13.1,34.4,12.4,34.4C12.4,34.4,12.4,34.4,12.4,34.4L12.4,34.4z"/>
	<path id="Path_34" class="st0" d="M-0.3,30l-1,1c-0.6,0.5-0.6,1.4-0.2,1.9c0.5,0.6,1.4,0.6,1.9,0.2c0.1,0,0.1-0.1,0.2-0.2l1-1
		c0.5-0.6,0.4-1.4-0.2-1.9C1,29.5,0.2,29.5-0.3,30z"/>
	<path id="Path_35" class="st0" d="M-4.1,17.9h-1.4c-0.8,0-1.4,0.6-1.4,1.4c0,0.8,0.6,1.4,1.4,1.4c0,0,0,0,0,0h1.4
		c0.8,0,1.4-0.6,1.4-1.4S-3.4,17.9-4.1,17.9C-4.1,17.9-4.1,17.9-4.1,17.9z"/>
	<path id="Path_36" class="st0" d="M-0.3,8.6C0.3,9.1,1.2,9,1.7,8.4c0.4-0.5,0.4-1.3,0-1.8l-1-1C0.1,5.1-0.8,5.2-1.2,5.8
		c-0.4,0.5-0.4,1.3,0,1.8L-0.3,8.6z"/>
	<path id="Path_37" class="st0" d="M12.4,4.1c0.8,0,1.4-0.6,1.4-1.4c0,0,0,0,0,0V1.4c0-0.8-0.6-1.4-1.4-1.4S11,0.6,11,1.4
		c0,0,0,0,0,0v1.4C11,3.5,11.6,4.1,12.4,4.1C12.4,4.1,12.4,4.1,12.4,4.1L12.4,4.1z"/>
	<path id="Path_38" class="st0" d="M19.1,8.8c-5.8-3.7-13.4-2-17.1,3.8c-3.7,5.8-2,13.4,3.8,17.1c5.8,3.7,13.4,2,17.1-3.8
		c1.3-2,2-4.3,2-6.7C24.8,15,22.6,11.1,19.1,8.8L19.1,8.8z M2.7,19.3c0-4.8,3.5-8.9,8.3-9.5v19.1C6.3,28.1,2.7,24.1,2.7,19.3
		L2.7,19.3z"/>
</g>
</svg>
