<?xml version="1.0" encoding="utf-8"?>
<!-- Generator: Adobe Illustrator 27.0.1, SVG Export Plug-In . SVG Version: 6.00 Build 0)  -->
<svg version="1.1" id="Layer_1" xmlns="http://www.w3.org/2000/svg" xmlns:xlink="http://www.w3.org/1999/xlink" x="0px" y="0px"
	 viewBox="0 0 24 24" style="enable-background:new 0 0 24 24;" xml:space="preserve">
<style type="text/css">
	.st0{fill:#FFFFFF;}
</style>
<path class="st0" d="M18.1,12.4l-6.2,6.2c-1.8,1.6-4.4,1.4-6-0.4c-1.4-1.6-1.4-4,0-5.6l8-8c1-0.9,2.5-0.9,3.5,0c1,1,1,2.6,0,3.5
	L10.5,15c-0.3,0.3-0.8,0.3-1.1,0s-0.3-0.8,0-1.1l5.1-5.1c0.4-0.4,0.4-1,0-1.4s-1-0.4-1.4,0L8,12.6c-1.1,1.1-1.1,2.8,0,3.9
	c0,0,0,0,0,0c1.1,1,2.8,1,3.9,0l6.9-6.9c1.7-1.8,1.6-4.7-0.2-6.4c-1.7-1.6-4.4-1.6-6.1,0l-8,8c-2.3,2.6-2.1,6.5,0.5,8.8
	c2.4,2.2,6.1,2.1,8.4-0.1l6.2-6.2c0.4-0.4,0.4-1,0-1.4S18.5,12,18.1,12.4L18.1,12.4L18.1,12.4z"/>
</svg>
