<?xml version="1.0" encoding="utf-8"?>
<!-- Generator: Adobe Illustrator 27.0.1, SVG Export Plug-In . SVG Version: 6.00 Build 0)  -->
<svg version="1.1" id="Layer_1" xmlns="http://www.w3.org/2000/svg" xmlns:xlink="http://www.w3.org/1999/xlink" x="0px" y="0px"
	 viewBox="0 0 90.5 22.1" style="enable-background:new 0 0 90.5 22.1;" xml:space="preserve">
<style type="text/css">
	.st0{fill:#FFFFFF;}
</style>
<g id="_8._paypal-w" transform="translate(0.011 -0.01)">
	<path id="Path_14" class="st0" d="M33.8,4.9h-5c-0.3,0-0.6,0.2-0.7,0.6l-2,12.8c0,0.2,0.1,0.4,0.3,0.5c0,0,0,0,0.1,0h2.4
		c0.3,0,0.6-0.2,0.7-0.6l0.5-3.5c0.1-0.3,0.3-0.6,0.7-0.6h1.6c3.3,0,5.2-1.6,5.7-4.8c0.3-1.1,0-2.3-0.6-3.2
		C36.5,5.3,35.2,4.8,33.8,4.9L33.8,4.9z M34.4,9.6c-0.3,1.8-1.6,1.8-3,1.8h-0.8l0.5-3.4c0-0.2,0.2-0.4,0.4-0.4H32
		c0.9,0,1.8,0,2.2,0.5C34.4,8.6,34.5,9.2,34.4,9.6L34.4,9.6z"/>
	<path id="Path_15" class="st0" d="M48.8,9.6h-2.4c-0.2,0-0.4,0.1-0.4,0.4l-0.1,0.7l-0.2-0.2c-0.7-0.8-1.8-1.1-2.8-1
		c-2.7,0.1-5,2.1-5.4,4.8c-0.3,1.3,0.1,2.6,0.9,3.7c0.8,0.8,1.9,1.3,3,1.2c1.2,0,2.4-0.5,3.3-1.4l-0.1,0.7c0,0.2,0.1,0.4,0.3,0.5
		c0,0,0,0,0.1,0h2.2c0.3,0,0.6-0.2,0.7-0.6l1.3-8.2C49.2,9.8,49.1,9.6,48.8,9.6C48.8,9.6,48.8,9.6,48.8,9.6L48.8,9.6z M45.4,14.2
		c-0.2,1.3-1.4,2.3-2.7,2.3c-1,0.1-1.9-0.6-2-1.6c0-0.2,0-0.5,0.1-0.7c0.2-1.3,1.3-2.3,2.7-2.3c0.6,0,1.2,0.2,1.6,0.7
		C45.4,13,45.6,13.6,45.4,14.2L45.4,14.2z"/>
	<path id="Path_16" class="st0" d="M61.6,9.6h-2.4c-0.2,0-0.4,0.1-0.6,0.3l-3.3,4.9l-1.4-4.7c-0.1-0.3-0.4-0.5-0.7-0.5h-2.4
		c-0.2,0-0.4,0.2-0.4,0.4c0,0,0,0.1,0,0.1l2.7,7.8l-2.5,3.5c-0.1,0.2-0.1,0.4,0.1,0.6c0.1,0.1,0.2,0.1,0.2,0.1h2.4
		c0.2,0,0.4-0.1,0.6-0.3l8-11.6C62,10,62,9.8,61.8,9.6C61.7,9.6,61.6,9.6,61.6,9.6L61.6,9.6z"/>
	<path id="Path_17" class="st0" d="M69.5,4.9h-5c-0.3,0-0.6,0.2-0.7,0.6l-2,12.8c0,0.2,0.1,0.4,0.3,0.5c0,0,0,0,0.1,0h2.6
		c0.2,0,0.4-0.2,0.5-0.4l0.6-3.6c0.1-0.3,0.3-0.6,0.7-0.6h1.6c3.3,0,5.2-1.6,5.7-4.8c0.3-1.1,0-2.3-0.6-3.2
		C72.2,5.3,70.9,4.8,69.5,4.9L69.5,4.9z M70.1,9.6c-0.3,1.8-1.6,1.8-3,1.8h-0.8l0.5-3.4c0-0.2,0.2-0.4,0.4-0.4h0.3
		c0.9,0,1.8,0,2.2,0.5C70.1,8.6,70.2,9.2,70.1,9.6L70.1,9.6z"/>
	<path id="Path_18" class="st0" d="M84.5,9.6h-2.4c-0.2,0-0.4,0.1-0.4,0.4l-0.1,0.7l-0.2-0.2c-0.7-0.8-1.8-1.1-2.8-1
		c-2.7,0.1-5,2.1-5.4,4.8c-0.3,1.3,0.1,2.6,0.9,3.7c0.8,0.8,1.9,1.3,3,1.2c1.2,0,2.4-0.5,3.3-1.4l-0.1,0.7c0,0.2,0.1,0.4,0.3,0.5
		c0,0,0,0,0.1,0h2.2c0.3,0,0.6-0.2,0.7-0.6l1.3-8.2C84.9,9.8,84.8,9.6,84.5,9.6C84.5,9.6,84.5,9.6,84.5,9.6L84.5,9.6z M81.2,14.2
		c-0.2,1.3-1.4,2.3-2.7,2.3c-1,0.1-1.9-0.6-2-1.6c0-0.2,0-0.5,0.1-0.7c0.2-1.3,1.3-2.3,2.7-2.3c0.6,0,1.2,0.2,1.6,0.7
		C81.1,13,81.3,13.6,81.2,14.2L81.2,14.2z"/>
	<path id="Path_19" class="st0" d="M87.3,5.3l-2.1,13.1c0,0.2,0.1,0.4,0.3,0.5c0,0,0,0,0.1,0h2.1c0.3,0,0.6-0.2,0.7-0.6l2-12.8
		c0-0.2-0.1-0.4-0.3-0.5c0,0,0,0-0.1,0h-2.3C87.5,4.9,87.3,5.1,87.3,5.3z"/>
	<path id="Path_20" class="st0" d="M5.3,21.3l0.4-2.4l-0.8,0H0.8L3.6,0.9c0-0.1,0-0.1,0.1-0.1c0,0,0.1-0.1,0.2-0.1h6.9
		c2.3,0,3.9,0.5,4.7,1.4C15.7,2.6,16,3,16.1,3.6c0.1,0.6,0.1,1.3,0,1.9v0.1l0,0.5l0.4,0.2c0.3,0.1,0.6,0.3,0.8,0.6
		c0.3,0.4,0.6,0.9,0.6,1.4C18,9,18,9.7,17.8,10.3c-0.1,0.8-0.4,1.6-0.8,2.3c-0.3,0.6-0.8,1.1-1.3,1.5c-0.5,0.4-1.2,0.7-1.8,0.8
		c-0.7,0.2-1.5,0.3-2.2,0.3h-0.5c-0.4,0-0.8,0.1-1,0.4c-0.3,0.2-0.5,0.6-0.5,1l0,0.2l-0.7,4.3l0,0.2c0,0,0,0.1,0,0.1c0,0,0,0-0.1,0
		L5.3,21.3L5.3,21.3z"/>
	<path id="Path_21" class="st0" d="M16.9,5.6L16.9,5.6c0,0.1,0,0.3-0.1,0.4c-0.9,4.6-4,6.3-8,6.3h-2c-0.5,0-0.9,0.4-1,0.8l0,0
		l-1,6.5l-0.3,1.9c0,0.3,0.1,0.5,0.4,0.6c0,0,0.1,0,0.1,0h3.6c0.4,0,0.8-0.3,0.8-0.7l0-0.2l0.7-4.3l0-0.2c0.1-0.4,0.4-0.7,0.8-0.7
		h0.5c3.5,0,6.2-1.4,7-5.5c0.4-1.4,0.2-2.9-0.7-4.1C17.6,6.1,17.2,5.8,16.9,5.6L16.9,5.6z"/>
	<path id="Path_22" class="st0" d="M15.9,5.2c-0.1,0-0.3-0.1-0.4-0.1L15,5c-0.6-0.1-1.2-0.1-1.8-0.1H7.9c-0.1,0-0.3,0-0.4,0.1
		C7.3,5.1,7.1,5.4,7,5.6l-1.1,7.3l0,0.2c0.1-0.5,0.5-0.8,1-0.8h2c4,0,7.1-1.6,8-6.3c0-0.1,0.1-0.3,0.1-0.4c-0.2-0.1-0.5-0.2-0.7-0.3
		C16,5.3,16,5.3,15.9,5.2L15.9,5.2z"/>
	<path id="Path_23" class="st0" d="M7,5.6c0-0.3,0.2-0.5,0.5-0.6c0.1-0.1,0.2-0.1,0.4-0.1h5.4c0.6,0,1.2,0,1.8,0.1
		c0.2,0,0.3,0.1,0.5,0.1c0.1,0,0.3,0.1,0.4,0.1l0.2,0.1c0.3,0.1,0.5,0.2,0.7,0.3c0.4-1.4,0-2.9-0.9-3.9c-1-1.2-2.9-1.7-5.2-1.7H3.8
		c-0.5,0-0.9,0.4-1,0.8L0,19c-0.1,0.3,0.2,0.6,0.5,0.7c0,0,0.1,0,0.1,0h4.2l1.1-6.8L7,5.6L7,5.6z"/>
</g>
</svg>
