<?xml version="1.0" encoding="UTF-8"?>
<svg id="Layer_2" data-name="Layer 2" xmlns="http://www.w3.org/2000/svg" viewBox="0 0 504 486">
  <defs>
    <style>
      .cls-1 {
        fill: #fff;
      }
    </style>
  </defs>
  <g id="Layer_1-2" data-name="Layer 1">
    <path class="cls-1" d="m490,0H14C6.3,0,0,6.3,0,14v305.8c0,3.7,1.5,7.3,4.1,9.9s6.2,4.1,9.9,4.1h186.1v85.1s-89.6,6.4-132,30.5c-7.6,4.3-12.2,6.8-12.2,15.5v21.1h392v-21.2c0-8.7-4.6-11.2-12.2-15.5-42.4-24.1-132-30.5-132-30.5v-85.1h186.3c3.7,0,7.3-1.5,9.9-4.1,2.6-2.6,4.1-6.2,4.1-9.9V14c0-3.7-1.5-7.3-4.1-9.9-2.6-2.7-6.2-4.1-9.9-4.1h0Zm-14,305.7H28V28h448v277.7Z"/>
  </g>
</svg>