<svg xmlns="http://www.w3.org/2000/svg" width="20.934" height="14.838" viewBox="0 0 20.934 14.838">
  <g id="resend-b" transform="translate(-5.316 -9.512)" opacity="0.25">
    <path id="Path_32" data-name="Path 32" d="M99.68,179.447v12.664a1.069,1.069,0,0,0,1.087,1.087h18.76a1.069,1.069,0,0,0,1.087-1.087V179.447a1.069,1.069,0,0,0-1.087-1.087H100.72a1.06,1.06,0,0,0-1.04,1.087Zm2.126,11.577V181.9l7.608,6.049a1.334,1.334,0,0,0,.709.189,1.129,1.129,0,0,0,.662-.236l7.608-6.049v9.12H101.806Zm1.8-10.49h13.089l-6.568,5.151Z" transform="translate(-94.364 -168.848)"/>
  </g>
</svg>
