<svg width="17" height="16" viewBox="0 0 17 16" fill="none" xmlns="http://www.w3.org/2000/svg">
<path fill-rule="evenodd" clip-rule="evenodd" d="M6.6021 9.37989L10.1147 15.4089C10.3523 15.8162 10.8078 16.0454 11.277 15.9924C11.7456 15.94 12.1392 15.6155 12.2804 15.1654C13.2426 12.094 15.6578 4.38401 16.5468 1.54725C16.6784 1.12685 16.5677 0.667756 16.258 0.354545C15.949 0.040739 15.4917 -0.0759713 15.0695 0.0496702L0.849974 4.29647C0.379563 4.437 0.043135 4.85263 0.00383485 5.3421C-0.0354654 5.83216 0.230096 6.29542 0.671926 6.50979L6.6021 9.37989ZM7.82696 9.11611L11.1436 14.8093L15.4107 1.19116L1.19117 5.43737L7.00522 8.2515L10.7786 5.01519C11.0281 4.80142 11.4045 4.83 11.6182 5.0795C11.832 5.329 11.8034 5.70533 11.5539 5.9191L7.82696 9.11611Z" fill="black" fill-opacity="0.5"/>
</svg>
