<?xml version="1.0" encoding="utf-8"?>
<!-- Generator: Adobe Illustrator 27.0.1, SVG Export Plug-In . SVG Version: 6.00 Build 0)  -->
<svg width="40" height="40" viewBox="0 0 40 40" fill="none" xmlns="http://www.w3.org/2000/svg">
<g clip-path="url(#clip0_302_955)">
<rect width="40" height="40" rx="20" fill="white" fill-opacity="0.1"/>
<path fill-rule="evenodd" clip-rule="evenodd" d="M23.3102 29.03C23.2102 29.71 22.5902 30.25 21.8502 30.25H18.1502C17.4102 30.25 16.7902 29.71 16.7002 28.98L16.4302 27.09C16.1602 26.95 15.9002 26.8 15.6402 26.63L13.8402 27.35C13.1402 27.61 12.3702 27.32 12.0302 26.7L10.2002 23.53C9.85023 22.87 10.0002 22.09 10.5602 21.65L12.0902 20.46C12.0802 20.31 12.0702 20.16 12.0702 20C12.0702 19.85 12.0802 19.69 12.0902 19.54L10.5702 18.35C9.98023 17.9 9.83023 17.09 10.2002 16.47L12.0502 13.28C12.3902 12.66 13.1602 12.38 13.8402 12.65L15.6502 13.38C15.9102 13.21 16.1702 13.06 16.4302 12.92L16.7002 11.01C16.7902 10.31 17.4102 9.76001 18.1402 9.76001H21.8402C22.5802 9.76001 23.2002 10.3 23.2902 11.03L23.5602 12.92C23.8302 13.06 24.0902 13.21 24.3502 13.38L26.1502 12.66C26.8602 12.4 27.6302 12.69 27.9702 13.31L29.8102 16.49C30.1702 17.15 30.0102 17.93 29.4502 18.37L27.9302 19.56C27.9402 19.71 27.9502 19.86 27.9502 20.02C27.9502 20.18 27.9402 20.33 27.9302 20.48L29.4502 21.67C30.0102 22.12 30.1702 22.9 29.8202 23.53L27.9602 26.75C27.6202 27.37 26.8502 27.65 26.1602 27.38L24.3602 26.66C24.1002 26.83 23.8402 26.98 23.5802 27.12L23.3102 29.03ZM18.6202 28.25H21.3802L21.7502 25.7L22.2802 25.48C22.7202 25.3 23.1602 25.04 23.6202 24.7L24.0702 24.36L26.4502 25.32L27.8302 22.92L25.8002 21.34L25.8702 20.78L25.8733 20.7531C25.9023 20.5027 25.9302 20.2607 25.9302 20C25.9302 19.73 25.9002 19.47 25.8702 19.22L25.8002 18.66L27.8302 17.08L26.4402 14.68L24.0502 15.64L23.6002 15.29C23.1802 14.97 22.7302 14.71 22.2702 14.52L21.7502 14.3L21.3802 11.75H18.6202L18.2502 14.3L17.7202 14.51C17.2802 14.7 16.8402 14.95 16.3802 15.3L15.9302 15.63L13.5502 14.68L12.1602 17.07L14.1902 18.65L14.1202 19.21C14.0902 19.47 14.0602 19.74 14.0602 20C14.0602 20.26 14.0802 20.53 14.1202 20.78L14.1902 21.34L12.1602 22.92L13.5402 25.32L15.9302 24.36L16.3802 24.71C16.8102 25.04 17.2402 25.29 17.7102 25.48L18.2402 25.7L18.6202 28.25ZM23.5002 20C23.5002 21.933 21.9332 23.5 20.0002 23.5C18.0672 23.5 16.5002 21.933 16.5002 20C16.5002 18.067 18.0672 16.5 20.0002 16.5C21.9332 16.5 23.5002 18.067 23.5002 20Z" fill="#F2F2F2"/>
</g>
<defs>
<clipPath id="clip0_302_955">
<rect width="40" height="40" rx="20" fill="white"/>
</clipPath>
</defs>
</svg>
