<svg width="20" height="20" viewBox="0 0 20 20" fill="none" xmlns="http://www.w3.org/2000/svg">
<g id="external-link">
<path id="icon" d="M12.1663 2.5C11.8902 2.5 11.6663 2.72386 11.6663 3V3.66667C11.6663 3.94281 11.8902 4.16667 12.1663 4.16667H14.658L7.65323 11.1714C7.45797 11.3667 7.45797 11.6833 7.65323 11.8786L8.12112 12.3464C8.31638 12.5417 8.63297 12.5417 8.82823 12.3464L15.833 5.34167V7.83333C15.833 8.10948 16.0569 8.33333 16.333 8.33333H16.9997C17.2758 8.33333 17.4997 8.10948 17.4997 7.83333V3C17.4997 2.72386 17.2758 2.5 16.9997 2.5H12.1663ZM14.9997 15H4.99967V5H7.83301C8.10915 5 8.33301 4.77614 8.33301 4.5V3.83333C8.33301 3.55719 8.10915 3.33333 7.83301 3.33333H4.33301C3.78072 3.33333 3.33301 3.78105 3.33301 4.33333V15.6667C3.33301 16.219 3.78072 16.6667 4.33301 16.6667H15.6663C16.2186 16.6667 16.6663 16.219 16.6663 15.6667V12.1667C16.6663 11.8905 16.4425 11.6667 16.1663 11.6667H15.4997C15.2235 11.6667 14.9997 11.8905 14.9997 12.1667V15Z" fill="#00EFC3"/>
</g>
</svg>
