<?xml version="1.0" encoding="utf-8"?>
<!-- Generator: Adobe Illustrator 27.0.1, SVG Export Plug-In . SVG Version: 6.00 Build 0)  -->
<svg width="76" height="30" viewBox="0 0 76 30" fill="none" xmlns="http://www.w3.org/2000/svg">
<rect width="76" height="30" rx="4" fill="#00CCA7" fill-opacity="0.1"/>
<path d="M16.4998 20.196C15.7438 20.196 15.0765 20.0607 14.4978 19.79C13.9192 19.5193 13.4665 19.132 13.1398 18.628C12.8132 18.124 12.6498 17.5173 12.6498 16.808V16.416H14.4698V16.808C14.4698 17.396 14.6518 17.8393 15.0158 18.138C15.3798 18.4273 15.8745 18.572 16.4998 18.572C17.1345 18.572 17.6058 18.446 17.9138 18.194C18.2312 17.942 18.3898 17.62 18.3898 17.228C18.3898 16.9573 18.3105 16.738 18.1518 16.57C18.0025 16.402 17.7785 16.2667 17.4798 16.164C17.1905 16.052 16.8358 15.9493 16.4158 15.856L16.0938 15.786C15.4218 15.6367 14.8432 15.45 14.3578 15.226C13.8818 14.9927 13.5132 14.6893 13.2518 14.316C12.9998 13.9427 12.8738 13.4573 12.8738 12.86C12.8738 12.2627 13.0138 11.754 13.2938 11.334C13.5832 10.9047 13.9845 10.578 14.4978 10.354C15.0205 10.1207 15.6318 10.004 16.3318 10.004C17.0318 10.004 17.6525 10.1253 18.1938 10.368C18.7445 10.6013 19.1738 10.956 19.4818 11.432C19.7992 11.8987 19.9578 12.4867 19.9578 13.196V13.616H18.1378V13.196C18.1378 12.8227 18.0632 12.524 17.9138 12.3C17.7738 12.0667 17.5685 11.8987 17.2978 11.796C17.0272 11.684 16.7052 11.628 16.3318 11.628C15.7718 11.628 15.3565 11.7353 15.0858 11.95C14.8245 12.1553 14.6938 12.44 14.6938 12.804C14.6938 13.0467 14.7545 13.252 14.8758 13.42C15.0065 13.588 15.1978 13.728 15.4498 13.84C15.7018 13.952 16.0238 14.05 16.4158 14.134L16.7378 14.204C17.4378 14.3533 18.0445 14.5447 18.5578 14.778C19.0805 15.0113 19.4865 15.3193 19.7758 15.702C20.0652 16.0847 20.2098 16.5747 20.2098 17.172C20.2098 17.7693 20.0558 18.2967 19.7478 18.754C19.4492 19.202 19.0198 19.5567 18.4598 19.818C17.9092 20.07 17.2558 20.196 16.4998 20.196ZM21.6441 20V13.056H23.4081V20H21.6441ZM22.5261 12.244C22.2087 12.244 21.9381 12.1413 21.7141 11.936C21.4994 11.7307 21.3921 11.46 21.3921 11.124C21.3921 10.788 21.4994 10.5173 21.7141 10.312C21.9381 10.1067 22.2087 10.004 22.5261 10.004C22.8527 10.004 23.1234 10.1067 23.3381 10.312C23.5527 10.5173 23.6601 10.788 23.6601 11.124C23.6601 11.46 23.5527 11.7307 23.3381 11.936C23.1234 12.1413 22.8527 12.244 22.5261 12.244ZM25.0268 16.556V16.332C25.0268 15.604 25.1715 14.9833 25.4608 14.47C25.7501 13.9473 26.1328 13.5507 26.6088 13.28C27.0941 13 27.6215 12.86 28.1908 12.86C28.8255 12.86 29.3061 12.972 29.6328 13.196C29.9595 13.42 30.1975 13.6533 30.3468 13.896H30.5988V13.056H32.3348V21.232C32.3348 21.708 32.1948 22.086 31.9148 22.366C31.6348 22.6553 31.2615 22.8 30.7948 22.8H26.1468V21.26H30.1788C30.4401 21.26 30.5708 21.12 30.5708 20.84V19.034H30.3188C30.2255 19.1833 30.0948 19.3373 29.9268 19.496C29.7588 19.6453 29.5348 19.7713 29.2548 19.874C28.9748 19.9767 28.6201 20.028 28.1908 20.028C27.6215 20.028 27.0941 19.8927 26.6088 19.622C26.1328 19.342 25.7501 18.9453 25.4608 18.432C25.1715 17.9093 25.0268 17.284 25.0268 16.556ZM28.6948 18.488C29.2361 18.488 29.6888 18.3153 30.0528 17.97C30.4168 17.6247 30.5988 17.1393 30.5988 16.514V16.374C30.5988 15.7393 30.4168 15.254 30.0528 14.918C29.6981 14.5727 29.2455 14.4 28.6948 14.4C28.1535 14.4 27.7008 14.5727 27.3368 14.918C26.9728 15.254 26.7908 15.7393 26.7908 16.374V16.514C26.7908 17.1393 26.9728 17.6247 27.3368 17.97C27.7008 18.3153 28.1535 18.488 28.6948 18.488ZM34.2905 20V13.056H36.0265V13.966H36.2785C36.3905 13.7233 36.6005 13.4947 36.9085 13.28C37.2165 13.056 37.6832 12.944 38.3085 12.944C38.8499 12.944 39.3212 13.07 39.7225 13.322C40.1332 13.5647 40.4505 13.9053 40.6745 14.344C40.8985 14.7733 41.0105 15.2773 41.0105 15.856V20H39.2465V15.996C39.2465 15.4733 39.1159 15.0813 38.8545 14.82C38.6025 14.5587 38.2385 14.428 37.7625 14.428C37.2212 14.428 36.8012 14.61 36.5025 14.974C36.2039 15.3287 36.0545 15.828 36.0545 16.472V20H34.2905ZM50.1962 20.196C49.3935 20.196 48.7029 20.0513 48.1242 19.762C47.5549 19.4633 47.1162 19.0433 46.8082 18.502C46.5095 17.9513 46.3602 17.3027 46.3602 16.556V10.2H48.2082V16.612C48.2082 17.2093 48.3762 17.6807 48.7122 18.026C49.0575 18.3713 49.5522 18.544 50.1962 18.544C50.8402 18.544 51.3302 18.3713 51.6662 18.026C52.0115 17.6807 52.1842 17.2093 52.1842 16.612V10.2H54.0322V16.556C54.0322 17.3027 53.8782 17.9513 53.5702 18.502C53.2715 19.0433 52.8329 19.4633 52.2542 19.762C51.6849 20.0513 50.9989 20.196 50.1962 20.196ZM55.8784 22.8V13.056H57.6144V13.896H57.8664C58.0251 13.6253 58.2724 13.3873 58.6084 13.182C58.9444 12.9673 59.4251 12.86 60.0504 12.86C60.6104 12.86 61.1284 13 61.6044 13.28C62.0804 13.5507 62.4631 13.952 62.7524 14.484C63.0418 15.016 63.1864 15.66 63.1864 16.416V16.64C63.1864 17.396 63.0418 18.04 62.7524 18.572C62.4631 19.104 62.0804 19.51 61.6044 19.79C61.1284 20.0607 60.6104 20.196 60.0504 20.196C59.6304 20.196 59.2758 20.1447 58.9864 20.042C58.7064 19.9487 58.4778 19.8273 58.3004 19.678C58.1324 19.5193 57.9971 19.3607 57.8944 19.202H57.6424V22.8H55.8784ZM59.5184 18.656C60.0691 18.656 60.5218 18.4833 60.8764 18.138C61.2404 17.7833 61.4224 17.27 61.4224 16.598V16.458C61.4224 15.786 61.2404 15.2773 60.8764 14.932C60.5124 14.5773 60.0598 14.4 59.5184 14.4C58.9771 14.4 58.5244 14.5773 58.1604 14.932C57.7964 15.2773 57.6144 15.786 57.6144 16.458V16.598C57.6144 17.27 57.7964 17.7833 58.1604 18.138C58.5244 18.4833 58.9771 18.656 59.5184 18.656Z" fill="#00EFC3"/>
</svg>
