<?xml version="1.0" encoding="UTF-8"?>
<svg id="Layer_1" data-name="Layer 1" xmlns="http://www.w3.org/2000/svg" viewBox="0 0 347.21 347.2">
  <defs>
    <style>
      .cls-1 {
        fill: #fff;
      }
    </style>
  </defs>
  <path class="cls-1" d="M323.94,86.8c-15.23-26.38-37.14-48.3-63.53-63.53C234.03,8.03,204.1,0,173.64,0c-38.22,0-75.37,12.6-105.69,35.85C37.62,59.11,15.82,91.73,5.92,128.64c-9.9,36.91-7.34,76.06,7.28,111.37,14.62,35.31,40.48,64.81,73.58,83.92,33.1,19.11,71.57,26.77,109.46,21.79,37.89-4.98,73.08-22.34,100.11-49.36,27.02-27.02,44.38-62.21,49.37-100.1,4.99-37.89-2.66-76.37-21.77-109.46h0Zm-29.12,16.8c8.36,14.51,14.05,30.41,16.8,46.93-10.14,5.6-30.07,12.6-59.75,17.36-.45-43.12-6.89-89.49-22.23-122.3,27.38,11.89,50.23,32.22,65.24,58.02h-.05ZM52.39,243.6h0c-10.11-17.45-16.32-36.88-18.2-56.95,20.01,7.33,40.79,12.34,61.94,14.95,2.18,36.18,8.79,72.8,21.22,99.85-27.25-11.89-50-32.16-64.96-57.85h0Zm42.84-75.6c-29.68-4.76-49.56-11.65-59.75-17.36,.75-4.41,1.7-8.79,2.86-13.16,10.9-41.22,40.13-75.15,79.3-92.01-15.29,32.93-21.79,79.24-22.4,122.53h0Zm78.4,145.6c-21.28,0-39.2-46.31-43.62-108.14,15.62,1.18,30.46,1.74,43.62,1.74s28-.56,43.62-1.73c-4.43,61.93-22.34,108.13-43.62,108.13h0Zm0-139.99c-16.35,0-31.19-.67-44.8-1.73,.34-76.66,20.21-138.27,44.8-138.27s44.35,61.6,44.8,138.21c-13.61,1.12-28.45,1.79-44.8,1.79h0Zm135.18,36.23c-9.5,35.91-32.97,66.52-65.18,85.01-4.54,2.55-9.21,4.86-14,6.89,12.71-27.33,19.32-63.73,21.5-100.13,21.04-2.69,41.71-7.76,61.6-15.12-.65,7.88-1.96,15.69-3.92,23.35h0Z"/>
</svg>