<svg id="usa-w" xmlns="http://www.w3.org/2000/svg" width="72" height="47.038" viewBox="0 0 72 47.038">
  <path id="Path_24" data-name="Path 24" d="M71.995,21.671H29.4V18.1h42.6V14.484H29.4V10.866h42.6V7.248H29.4V3.63h42.6V.012H29.4V0H0V25.289H72V21.671ZM24.375,3.615l.309.952h1l-.81.588.309.952-.81-.589-.81.589.309-.952-.809-.588h1l.309-.952Zm.81,7.541-.81-.589-.81.589.309-.952-.809-.589h1l.309-.952.309.952h1l-.81.589.309.952Zm0,5.028-.81-.589-.81.589.309-.952-.809-.589h1l.309-.952.309.952h1l-.81.589.309.952Zm-2.42,2.524-.809-.589-.81.589.309-.952-.809-.589h1l.309-.952.309.952h1l-.809.589.308.952Zm-2.42-2.524-.81-.589-.81.589.309-.952-.81-.589h1l.309-.952.309.952h1l-.81.589.309.952Zm-2.419,2.524-.81-.589-.809.589.309-.952-.81-.589h1l.309-.952.309.952h1l-.81.589.309.952Zm-2.42-2.524L14.7,15.6l-.81.589.309-.952-.81-.589h1l.309-.952.309.952h1l-.81.589.309.952Zm-2.419,2.524-.81-.589-.809.589.309-.952-.81-.589h1l.309-.952.309.952h1l-.81.589.309.952Zm-2.42-2.524-.81-.589-.81.589.309-.952-.81-.589h1l.309-.952.309.952h1l-.809.589.309.952ZM8.249,18.708l-.809-.589-.81.589.309-.952-.81-.589h1l.309-.952.309.952h1l-.809.589.308.952ZM5.83,16.184l-.81-.589-.809.589.309-.952-.809-.589h1l.309-.952.309.952h1l-.81.589.308.952ZM3.711,9.616h1l.309-.952.309.952h1l-.81.589.309.952-.81-.589-.809.589L4.52,10.2l-.81-.589Zm19.056-.985-.809-.589-.81.589.309-.952-.809-.588h1l.309-.952.309.952h1l-.809.588.308.952Zm0,5.028-.809-.589-.81.589.309-.952-.809-.589h1l.309-.952.309.952h1l-.809.589.308.952ZM20.847,9.615l-.81.589.309.952-.81-.589-.81.589.309-.952-.81-.589h1l.309-.952.309.952h1Zm-2.92,4.044-.81-.589-.809.589.309-.952-.81-.589h1l.309-.952.309.952h1l-.81.589.309.952Zm-.309-5.981.309.952-.81-.589-.809.589.309-.952-.81-.588h1l.309-.952.309.952h1l-.81.588Zm-1.61,1.936-.81.589.309.952-.81-.589-.81.589L14.2,10.2l-.81-.589h1l.309-.952.309.952h1Zm-2.92,4.044-.81-.589-.809.589.309-.952-.81-.589h1l.309-.952.309.952h1l-.81.589.309.952ZM12.78,7.678l.309.952-.81-.589-.809.589.309-.952-.81-.588h1l.309-.952.309.952h1l-.81.588ZM11.17,9.615l-.809.589.309.952-.81-.589-.81.589.309-.952-.81-.589h1l.309-.952.309.952h1ZM8.25,13.659l-.809-.589-.81.589.309-.952-.81-.589h1l.309-.952.309.952h1l-.81.589.309.952ZM7.941,7.678l.309.952-.809-.589-.81.589.309-.952L6.13,7.09h1l.309-.952.309.952h1l-.81.588ZM21.647,2.041l.309-.952.309.952h1l-.809.589.309.952-.809-.588-.81.588.309-.952-.809-.589h1Zm-2.11,1.572.309.952h1l-.81.588.309.952-.81-.589-.81.589.309-.952-.81-.588h1l.309-.952ZM16.808,2.041l.309-.952.309.952h1l-.81.589.309.952-.81-.588-.809.588.309-.952-.81-.589h1ZM14.7,3.614l.309.952h1l-.81.588.309.952-.81-.589-.81.589.309-.952-.81-.588h1l.309-.952ZM11.97,2.041l.309-.952.309.952h1l-.81.589.309.952-.81-.588-.809.588.309-.952-.81-.589h1ZM9.859,3.614l.309.952h1l-.809.588.309.952-.81-.589-.81.589.309-.952-.81-.588h1l.309-.952ZM7.131,2.041,7.44,1.09l.309.952h1l-.81.588.309.952L7.44,2.993l-.81.588.309-.952-.81-.589h1ZM5.02,3.615l.309.952h1l-.81.588.309.952-.81-.589-.809.589.309-.952-.809-.588h1l.308-.952ZM2.292,2.042,2.6,1.091l.309.952h1L3.1,2.631l.309.952L2.6,3l-.809.588L2.1,2.631l-.81-.589h1Zm0,5.049L2.6,6.14l.309.952h1L3.1,7.68l.309.952L2.6,8.042l-.809.589L2.1,7.68l-.81-.588h1Zm0,5.028.309-.952.309.952h1l-.809.589.309.952L2.6,13.071l-.809.589.309-.952-.81-.589h1Zm0,5.049.309-.952.309.952h1l-.809.589.309.952L2.6,18.12l-.809.589.309-.952-.81-.589h1ZM3.411,24.2,2.6,23.611l-.809.589.309-.952-.81-.589h1l.309-.952.309.952h1l-.809.589Zm1.61-3.134-.809.589.309-.952-.809-.589h1l.309-.952.309.952h1l-.81.589.309.952-.811-.589ZM8.249,24.2l-.809-.589-.81.589.309-.952-.81-.589h1l.309-.952.309.952h1l-.809.589.308.952Zm1.61-3.134-.81.589.309-.952-.81-.589h1l.309-.952.309.952h1l-.809.589.309.952-.81-.589ZM13.088,24.2l-.81-.589-.809.589.309-.952-.81-.589h1l.309-.952.309.952h1l-.81.589.309.952Zm1.61-3.134-.81.589L14.2,20.7l-.81-.589h1l.309-.952.309.952h1l-.81.589.309.952-.81-.589ZM17.927,24.2l-.81-.589-.809.589.309-.952-.81-.589h1l.309-.952.309.952h1l-.81.589.309.952Zm1.61-3.134-.81.589.309-.952-.81-.589h1l.309-.952.309.952h1l-.81.589.309.952-.81-.589Zm3.23,3.134-.809-.589-.81.589.309-.952-.809-.589h1l.309-.952.309.952h1l-.809.589.308.952Zm1.61-3.134-.81.589.309-.952-.809-.589h1l.309-.952.309.952h1l-.81.589.309.952-.81-.589Zm3.23,3.134-.81-.589-.809.589.309-.952-.809-.589h1l.309-.952.309.952h1l-.809.589.308.952ZM27.3,17.757l.309.952-.81-.589-.809.589.309-.952-.809-.589h1l.309-.952.309.952h1l-.811.589Zm0-5.049.309.952-.81-.589-.809.589.309-.952-.809-.589h1l.309-.952.309.952h1l-.811.589Zm0-5.028.309.952-.81-.589-.809.589L26.3,7.68l-.809-.588h1L26.8,6.14l.309.952h1L27.3,7.68Zm0-5.049.309.952-.81-.588-.809.588L26.3,2.63l-.809-.589h1L26.8,1.09l.309.952h1L27.3,2.63Z" fill="#fff"/>
  <path id="Path_25" data-name="Path 25" d="M0,272.27H72v3.618H0Z" transform="translate(0 -243.322)" fill="#fff"/>
  <path id="Path_26" data-name="Path 26" d="M0,340.34H72v3.618H0Z" transform="translate(0 -304.155)" fill="#fff"/>
  <path id="Path_27" data-name="Path 27" d="M0,408.39H72v3.618H0Z" transform="translate(0 -364.97)" fill="#fff"/>
</svg>
