<?xml version="1.0" encoding="utf-8"?>
<!-- Generator: Adobe Illustrator 27.0.1, SVG Export Plug-In . SVG Version: 6.00 Build 0)  -->
<svg width="199" height="40" viewBox="0 0 199 40" fill="none" xmlns="http://www.w3.org/2000/svg">
<rect width="199" height="40" rx="20" fill="white" fill-opacity="0.1"/>
<g filter="url(#filter0_b_204_1567)">
<rect x="2" y="2" width="36" height="36" rx="18" fill="white" fill-opacity="0.1"/>
<path fill-rule="evenodd" clip-rule="evenodd" d="M25.4002 16.4C25.4002 19.3823 22.9826 21.8 20.0002 21.8C17.0179 21.8 14.6002 19.3823 14.6002 16.4C14.6002 13.4177 17.0179 11 20.0002 11C22.9826 11 25.4002 13.4177 25.4002 16.4ZM23.6002 16.4C23.6002 18.3882 21.9884 20 20.0002 20C18.012 20 16.4002 18.3882 16.4002 16.4C16.4002 14.4118 18.012 12.8 20.0002 12.8C21.9884 12.8 23.6002 14.4118 23.6002 16.4Z" fill="#E6E6E6"/>
<path d="M20.0002 24.5C14.1733 24.5 9.20857 27.9456 7.31738 32.7728C7.77809 33.2303 8.26341 33.663 8.77118 34.0689C10.1794 29.6369 14.5973 26.3 20.0002 26.3C25.4032 26.3 29.821 29.6369 31.2293 34.0689C31.737 33.6631 32.2224 33.2303 32.6831 32.7729C30.7919 27.9456 25.8272 24.5 20.0002 24.5Z" fill="#E6E6E6"/>
</g>
<path d="M178.375 17H190.625L185.119 23.293C184.955 23.4805 184.732 23.5858 184.5 23.5858C184.268 23.5858 184.045 23.4805 183.881 23.293L178.375 17Z" fill="white"/>
<defs>
<filter id="filter0_b_204_1567" x="-8" y="-8" width="56" height="56" filterUnits="userSpaceOnUse" color-interpolation-filters="sRGB">
<feFlood flood-opacity="0" result="BackgroundImageFix"/>
<feGaussianBlur in="BackgroundImageFix" stdDeviation="5"/>
<feComposite in2="SourceAlpha" operator="in" result="effect1_backgroundBlur_204_1567"/>
<feBlend mode="normal" in="SourceGraphic" in2="effect1_backgroundBlur_204_1567" result="shape"/>
</filter>
</defs>
</svg>
