<?xml version="1.0" encoding="utf-8"?>
<!-- Generator: Adobe Illustrator 27.0.1, SVG Export Plug-In . SVG Version: 6.00 Build 0)  -->
<svg width="36" height="36" viewBox="0 0 36 36" fill="none" xmlns="http://www.w3.org/2000/svg">
<g filter="url(#filter0_b_204_1568)">
<rect width="36" height="36" rx="18" fill="white" fill-opacity="0.1"/>
<path fill-rule="evenodd" clip-rule="evenodd" d="M23.4002 14.4C23.4002 17.3823 20.9826 19.8 18.0002 19.8C15.0179 19.8 12.6002 17.3823 12.6002 14.4C12.6002 11.4177 15.0179 9 18.0002 9C20.9826 9 23.4002 11.4177 23.4002 14.4ZM21.6002 14.4C21.6002 16.3882 19.9884 18 18.0002 18C16.012 18 14.4002 16.3882 14.4002 14.4C14.4002 12.4118 16.012 10.8 18.0002 10.8C19.9884 10.8 21.6002 12.4118 21.6002 14.4Z" fill="#E6E6E6"/>
<path d="M18.0002 22.5C12.1733 22.5 7.20857 25.9456 5.31738 30.7728C5.77809 31.2303 6.26341 31.663 6.77118 32.0689C8.17945 27.6369 12.5973 24.3 18.0002 24.3C23.4032 24.3 27.821 27.6369 29.2293 32.0689C29.737 31.6631 30.2224 31.2303 30.6831 30.7729C28.7919 25.9456 23.8272 22.5 18.0002 22.5Z" fill="#E6E6E6"/>
</g>
<defs>
<filter id="filter0_b_204_1568" x="-10" y="-10" width="56" height="56" filterUnits="userSpaceOnUse" color-interpolation-filters="sRGB">
<feFlood flood-opacity="0" result="BackgroundImageFix"/>
<feGaussianBlur in="BackgroundImageFix" stdDeviation="5"/>
<feComposite in2="SourceAlpha" operator="in" result="effect1_backgroundBlur_204_1568"/>
<feBlend mode="normal" in="SourceGraphic" in2="effect1_backgroundBlur_204_1568" result="shape"/>
</filter>
</defs>
</svg>
