<?xml version="1.0" encoding="utf-8"?>
<!-- Generator: Adobe Illustrator 27.0.1, SVG Export Plug-In . SVG Version: 6.00 Build 0)  -->
<svg version="1.1" id="Layer_1" xmlns="http://www.w3.org/2000/svg" xmlns:xlink="http://www.w3.org/1999/xlink" x="0px" y="0px"
	 viewBox="0 0 76.5 14.1" style="enable-background:new 0 0 76.5 14.1;" xml:space="preserve">
<style type="text/css">
	.st0{fill:#FFFFFF;}
</style>
<g id="layer1">
	<g id="g838">
		<path id="path815" class="st0" d="M12.6,0c0.5,0.8,0.8,1.8,0.7,2.7c0,3.4-3,7.9-5.5,11H2.2L0,0.7l4.9-0.4l1.2,9.2
			C7.2,7.8,8.6,5,8.6,3.2c0-0.8-0.1-1.6-0.5-2.3L12.6,0z"/>
		<path id="path817" class="st0" d="M18.9,5.7c0.9,0,3.2-0.4,3.2-1.6c0-0.5-0.4-0.9-0.8-0.9c0,0-0.1,0-0.1,0
			C19.9,3.4,19,4.4,18.9,5.7z M18.8,8.2c-0.1,1,0.6,2,1.6,2.1c0.1,0,0.3,0,0.4,0c1.4,0,2.8-0.4,4.1-1.1l-0.6,3.9
			c-1.4,0.6-3,0.9-4.5,0.9c-4.3,0-5.8-2.5-5.8-5.6c0-4,2.5-8.3,7.6-8.3C24.4,0,26,1.6,26,3.7C26,7.1,21.5,8.2,18.8,8.2L18.8,8.2z"/>
		<path id="path819" class="st0" d="M40.2,3c0,0.6-0.1,1.1-0.2,1.7l-1.5,9h-4.8l1.3-8.2c0-0.2,0.1-0.7,0.1-0.9
			c0-0.6-0.4-0.7-0.9-0.7c-0.6,0-1.1,0.2-1.7,0.5l-1.5,9.4h-4.8l2.2-13.5h4.2l0.1,1.1C34,0.5,35.4,0,36.9,0C39.3,0,40.2,1.2,40.2,3
			L40.2,3z"/>
		<path id="path821" class="st0" d="M54.3,1.5c1.3-1,2.8-1.5,4.4-1.5c2.5,0,3.3,1.2,3.3,3c0,0.6-0.1,1.1-0.2,1.7l-1.5,9h-4.8
			l1.4-8.4c0-0.2,0.1-0.5,0.1-0.7c0-0.7-0.4-0.8-0.9-0.8c-0.6,0-1.1,0.2-1.6,0.5l-1.5,9.4h-4.8l1.4-8.4c0-0.2,0.1-0.5,0.1-0.7
			c0-0.7-0.4-0.8-0.9-0.8c-0.6,0-1.1,0.2-1.7,0.5l-1.5,9.4H41l2.2-13.5h4.1l0.1,1.1c1.1-0.9,2.5-1.3,4-1.3C52.6,0,53.7,0.5,54.3,1.5
			z"/>
		<path id="path823" class="st0" d="M71.6,5.4c0-1.1-0.3-1.8-1.1-1.8c-1.9,0-2.3,3.2-2.3,4.9c0,1.2,0.4,2,1.2,2
			C71.2,10.5,71.6,7.1,71.6,5.4L71.6,5.4z M63.3,8.3C63.3,4,65.7,0,71,0c4,0,5.5,2.3,5.5,5.5c0,4.2-2.3,8.5-7.8,8.5
			C64.7,14.1,63.3,11.5,63.3,8.3L63.3,8.3z"/>
	</g>
</g>
</svg>
