<svg width="24" height="24" viewBox="0 0 24 24" fill="none" xmlns="http://www.w3.org/2000/svg">
<g id="close">
<path id="icon" d="M19.829 4.99203L19.008 4.17105C18.7799 3.94298 18.4101 3.94298 18.1821 4.17105L12 10.3531L5.81793 4.17105C5.58986 3.94298 5.2201 3.94298 4.99203 4.17105L4.17106 4.99202C3.94299 5.22009 3.94299 5.58986 4.17106 5.81792L10.3531 12L4.17106 18.1821C3.943 18.4101 3.943 18.7799 4.17106 19.008L4.99204 19.829C5.2201 20.057 5.58987 20.057 5.81793 19.829L12 13.6468L18.1821 19.8289C18.4102 20.057 18.7799 20.057 19.008 19.8289L19.829 19.0079C20.057 18.7799 20.057 18.4101 19.829 18.182L13.6469 12L19.829 5.81792C20.057 5.58986 20.057 5.22009 19.829 4.99203Z" fill="#A8ADBD"/>
</g>
</svg>
