<svg width="96" height="96" viewBox="0 0 96 96" fill="none" xmlns="http://www.w3.org/2000/svg">
<g id="X in a Circle">
<path id="Vector" fill-rule="evenodd" clip-rule="evenodd" d="M48 80C65.6732 80 80 65.6732 80 48C80 30.3269 65.6732 16 48 16C30.3269 16 16 30.3269 16 48C16 65.6732 30.3269 80 48 80ZM48 88C70.0912 88 88 70.0912 88 48C88 25.9086 70.0912 8 48 8C25.9086 8 8 25.9086 8 48C8 70.0912 25.9086 88 48 88Z" fill="#2E0506"/>
<path id="Vector_2" fill-rule="evenodd" clip-rule="evenodd" d="M48 53.657L61.1716 66.8286L66.8284 61.1718L53.6568 48.0002L66.8284 34.8287L61.1716 29.1719L48 42.3434L34.8285 29.1719L29.1716 34.8287L42.3432 48.0002L29.1716 61.1718L34.8285 66.8286L48 53.657Z" fill="#E92329"/>
</g>
</svg>
