<svg xmlns="http://www.w3.org/2000/svg" width="16" height="16" viewBox="0 0 16 16" fill="none">
  <path fill-rule="evenodd" clip-rule="evenodd" d="M13.2129 2.78631C12.7069 2.28031 12.0335 2.00165 11.3163 2.00165C10.6003 2.00165 9.92556 2.28031 9.41888 2.78765L2.47959 9.72698C2.39423 9.81231 2.3336 9.91898 2.30422 10.0363L1.97015 13.6675C1.96828 13.6878 1.96828 13.7082 1.97015 13.7285C1.987 13.9119 2.14927 14.0468 2.33262 14.03L5.96495 13.6963C6.08156 13.6676 6.1889 13.6063 6.27427 13.521L13.2136 6.58165C13.7202 6.07498 13.9989 5.40031 13.9989 4.68431C13.9989 3.96765 13.7202 3.29298 13.2129 2.78631ZM11.7596 6.15L12.2708 5.63884C12.5269 5.38274 12.6656 5.04743 12.6656 4.68431C12.6656 4.32062 12.527 3.98563 12.2701 3.72912C12.0143 3.47324 11.6801 3.33498 11.3163 3.33498C10.9532 3.33498 10.6183 3.47364 10.3618 3.73046L9.85093 4.24129L11.7596 6.15ZM3.51752 10.5746L3.33343 12.6666L5.42629 12.4833L10.8168 7.09281L8.90806 5.18409L3.51752 10.5746Z" fill="#CCFFF6"/>
</svg>