<svg width="48" height="48" viewBox="0 0 48 48" fill="none" xmlns="http://www.w3.org/2000/svg">
<g id="cybernetic svg 2" clip-path="url(#clip0_1268_8882)">
<g id="Layer 1">
<g id="Layer 2">
<g id="Layer 1-2">
<path id="Vector" d="M22.9179 40.913C22.5866 39.8281 22.2746 38.8055 21.9578 37.7829C21.0168 34.7633 20.0711 31.7436 19.1446 28.7239C19.0486 28.4118 18.919 28.2438 18.5637 28.1622C13.0094 26.9044 7.45507 25.6322 1.90555 24.3504C1.74233 24.3024 1.60791 24.1872 1.5407 24.0287C1.10865 22.7133 0.695794 21.3931 0.297342 20.0633C0.230134 19.8425 0.215732 19.6024 0.258937 19.372C0.652589 17.3845 1.29587 15.4498 2.17919 13.6207C2.18879 13.5967 2.21759 13.5871 2.2704 13.5391C2.41442 13.9759 2.54884 14.4032 2.68325 14.8257C2.81767 15.2481 2.96169 15.6946 3.09611 16.1315C3.57617 17.6533 4.06103 19.1704 4.53149 20.6922C4.6131 20.9611 4.74272 21.0811 5.03556 21.1483C10.6043 22.4109 16.1682 23.6831 21.7273 24.9697C21.8906 25.0129 22.0298 25.1233 22.1018 25.2769C24.3821 32.6173 26.648 39.9529 28.9091 47.2933C28.9283 47.3557 28.9427 47.4181 28.9763 47.5477L26.4223 47.9078C26.3839 47.9126 26.3407 47.9126 26.3023 47.9126C25.8943 47.927 25.3758 48.0998 25.1166 47.9126C24.8573 47.7253 24.8333 47.1876 24.7133 46.7988C24.5645 46.3283 24.4253 45.8482 24.2669 45.3778C24.2285 45.2721 24.1324 45.1281 24.0364 45.1041C22.7211 44.7921 21.3961 44.4944 20.0519 44.192L19.1782 47.4901L15.5777 46.5635C15.885 45.4882 16.1778 44.4464 16.4802 43.3806L12.6205 42.4973C12.2365 42.4109 11.8428 42.3485 11.4684 42.2333C11.2236 42.1612 11.0843 42.2333 10.9307 42.4109C10.6043 42.7853 10.2538 43.1406 9.86499 43.5487L6.9222 41.0859L8.63123 39.276C8.96247 38.9207 9.30811 38.5799 9.62976 38.215C9.76417 38.023 10.009 37.9462 10.2346 38.0182C14.32 38.9639 18.4053 39.9001 22.4954 40.8314C22.6154 40.8602 22.7307 40.8794 22.9179 40.913Z" fill="white"/>
<path id="Vector_2" d="M7.22461 14.86L11.7564 15.8921C13.043 16.185 14.3295 16.473 15.6113 16.7803C15.7985 16.8427 16.005 16.7803 16.125 16.6267C19.0245 13.5398 21.9289 10.4577 24.8381 7.38038C24.9965 7.20755 25.0061 7.06353 24.9437 6.8571C24.2764 4.73516 23.6283 2.61322 22.9755 0.491279C22.9323 0.356857 22.8986 0.222436 22.8362 0.00640102C23.3931 0.00640102 23.902 -0.00800128 24.4108 0.00640102C25.1501 0.0400064 25.8846 0.0976156 26.6239 0.136022C26.8352 0.145623 26.9408 0.208033 27.008 0.433669C27.7665 2.94927 28.5394 5.46007 29.2931 7.97567C29.3315 8.09569 29.2451 8.29733 29.1539 8.39334C26.4271 11.2978 23.6956 14.2023 20.964 17.0971L20.2535 17.8509L23.4315 18.571C26.5951 19.2911 29.7587 20.0064 32.9175 20.7313C33.1864 20.7937 33.3592 20.7601 33.5608 20.5441C36.8253 17.0587 40.0945 13.583 43.3733 10.112C43.4549 10.0256 43.5125 9.92479 43.6517 9.73276C44.2998 10.7937 44.8711 11.7635 45.476 12.7044C45.7304 13.0981 45.6536 13.3333 45.3416 13.655C41.8275 17.3612 38.3279 21.0722 34.8378 24.7928C34.6842 24.956 34.5594 25.0472 34.3097 24.9896C30.546 24.1207 26.7824 23.2565 23.0139 22.3972C18.2852 21.317 13.5518 20.232 8.82322 19.1471C8.6696 19.1135 8.53518 19.0126 8.46317 18.8734C8.04552 17.5628 7.65186 16.2522 7.22461 14.86Z" fill="white"/>
<path id="Vector_3" d="M42.1449 26.7132C41.5112 27.3901 40.9112 28.019 40.3207 28.6479C37.9732 31.1491 35.6209 33.6503 33.2686 36.1515C33.1006 36.2955 33.0429 36.5308 33.1294 36.7372C33.9935 39.5072 34.8432 42.2773 35.7265 45.1337L32.174 46.718C31.8668 45.7386 31.5788 44.8169 31.2955 43.8952C30.4554 41.1683 29.6249 38.4415 28.7752 35.729C28.6936 35.537 28.7512 35.3162 28.9096 35.1818C34.8672 28.8543 40.8296 22.5269 46.7871 16.1995C46.8303 16.1515 46.8831 16.1131 47.0176 15.9883C47.3344 17.2605 47.6032 18.4655 47.9345 19.6561C48.0977 20.2418 47.9585 20.645 47.512 21.0627C46.7775 21.7588 46.1198 22.5317 45.4142 23.2566C45.2557 23.3959 45.2029 23.6167 45.2845 23.8087C45.947 25.9163 46.6047 28.0238 47.2384 30.1409C47.3296 30.4338 47.3344 30.7458 47.2576 31.0435C46.7391 32.7478 46.0286 34.3848 45.1405 35.9259L45.0445 36.0987C44.0652 32.9398 43.1195 29.8673 42.1449 26.7132Z" fill="white"/>
<path id="Vector_4" d="M3.56206 36.9471C3.0676 36.035 2.57794 35.1708 2.13628 34.2875C1.67062 33.3609 1.68982 33.3513 2.40511 32.588C2.70755 32.2616 3.01479 31.9399 3.36044 31.5702C2.63554 31.4118 1.95865 31.2342 1.27697 31.119C0.931321 31.0614 0.787302 30.9077 0.720094 30.5861C0.499265 29.5011 0.259234 28.4161 0.0336044 27.3312C0.0144019 27.2015 0.00480062 27.0671 0 26.9375C0.811305 27.1151 1.58901 27.288 2.36671 27.4608C6.51925 28.3921 10.6718 29.3283 14.8243 30.2644C14.9683 30.298 15.0884 30.3893 15.1604 30.5189C15.5732 31.8247 15.9717 33.1401 16.3893 34.5179C15.6932 34.3643 15.0452 34.2203 14.3971 34.0714C12.2656 33.5866 10.1293 33.1017 7.99784 32.6024C7.73381 32.54 7.61379 32.6456 7.46977 32.804C6.29362 34.0618 5.11266 35.3148 3.93171 36.5678L3.56206 36.9471Z" fill="white"/>
<path id="Vector_5" d="M38.943 4.98852L41.7753 7.54253L38.2949 11.2679C36.6531 13.025 35.0064 14.7821 33.3598 16.5344C33.2542 16.64 33.0718 16.7792 32.9518 16.7504C31.5884 16.4528 30.2298 16.1311 28.8232 15.8094C28.9145 15.699 28.9673 15.6174 29.0345 15.5502C30.8923 13.5723 32.7502 11.5992 34.6128 9.63086C34.7904 9.44363 34.8528 9.29001 34.7664 9.01636C33.9935 6.56317 33.2398 4.10038 32.4861 1.64238C32.4765 1.60878 32.4765 1.57037 32.4525 1.40234C33.6671 1.98804 34.8288 2.50652 35.9474 3.09221C37.2195 3.75472 37.2003 3.78352 37.6036 5.16135C37.69 5.45899 37.786 5.75184 37.9012 6.1119L38.943 4.98852Z" fill="white"/>
<path id="Vector_6" d="M4.8291 9.39016C4.97312 9.21253 5.07873 9.05411 5.20835 8.91008C6.01006 8.06035 6.80696 7.20581 7.62787 6.37048C7.77188 6.25526 7.95911 6.20245 8.14153 6.23125C9.4425 6.5145 10.7387 6.81695 12.0348 7.1242C12.2509 7.19621 12.4861 7.1194 12.6205 6.94177C13.1342 6.36568 13.6815 5.80879 14.2095 5.23749L12.4381 2.88032C13.3166 2.48666 14.1471 2.10259 14.992 1.74254C15.8369 1.38248 15.8561 1.38728 16.4322 2.10259C16.5378 2.23702 16.6434 2.36664 16.7731 2.52026L18.4581 0.734375L18.7509 1.67533C19.063 2.67389 19.3798 3.66764 19.6726 4.671C19.711 4.83423 19.6726 5.00706 19.5718 5.14148C17.6804 7.1674 15.7793 9.18853 13.8687 11.2C13.7535 11.3057 13.595 11.3585 13.4366 11.3393C10.585 10.7104 7.73348 10.0527 4.8291 9.39016Z" fill="white"/>
<path id="Vector_7" d="M38.6494 43.3179C38.275 42.1273 37.9437 41.0711 37.6125 40.0198C37.4781 39.5829 37.3629 39.1364 37.1997 38.7091C37.0988 38.5075 37.1468 38.2675 37.3197 38.1235C38.251 37.1633 39.1679 36.1887 40.1328 35.1758C40.4209 36.1023 40.6945 36.9857 40.9633 37.8642C41.2034 38.6371 41.4434 39.4101 41.6738 40.1878C41.7074 40.2934 41.717 40.4758 41.6546 40.5382C40.6801 41.4504 39.696 42.3577 38.6494 43.3179Z" fill="white"/>
<path id="Vector_8" d="M30.9302 27.0046L27.877 30.2451C27.4353 28.8193 27.0129 27.4511 26.5664 26.0156L30.9302 27.0046Z" fill="white"/>
</g>
</g>
</g>
</g>
<defs>
<clipPath id="clip0_1268_8882">
<rect width="48" height="48" fill="white"/>
</clipPath>
</defs>
</svg>
