<?xml version="1.0" encoding="UTF-8"?>
<svg id="Layer_2" data-name="Layer 2" xmlns="http://www.w3.org/2000/svg" viewBox="0 0 466.6 466.6">
  <defs>
    <style>
      .cls-1 {
        fill: #ffffff;
      }
    </style>
  </defs>
  <g id="Layer_1-2" data-name="Layer 1">
    <path class="cls-1" d="m233.3,0C104.7,0,0,104.7,0,233.3s104.7,233.3,233.3,233.3,233.3-104.6,233.3-233.3S362,0,233.3,0h0Zm99,299.3c9.1,9.1,9.1,23.9,0,33-4.6,4.6-10.5,6.8-16.5,6.8s-11.9-2.3-16.5-6.8l-66-66-66,66c-4.6,4.6-10.5,6.8-16.5,6.8s-11.9-2.3-16.5-6.8c-9.1-9.1-9.1-23.9,0-33l66-66-66-66c-9.1-9.1-9.1-23.9,0-33s23.9-9.1,33,0l66,66,66-66c9.1-9.1,23.9-9.1,33,0s9.1,23.9,0,33l-66,66,66,66Z"/>
  </g>
</svg>