<svg xmlns="http://www.w3.org/2000/svg" width="20" height="20" viewBox="0 0 20 20" fill="none">
<path d="M9.99935 14.1667C10.6894 14.1667 11.2493 13.6067 11.2493 12.9167C11.2493 12.2267 10.6894 11.6667 9.99935 11.6667C9.30935 11.6667 8.74935 12.2267 8.74935 12.9167C8.74935 13.6067 9.30935 14.1667 9.99935 14.1667Z" fill="#00EFC3"/>
<path fill-rule="evenodd" clip-rule="evenodd" d="M14.166 8.33333V6.66667C14.166 4.3692 12.2968 2.5 9.99935 2.5C7.70188 2.5 5.83268 4.3692 5.83268 6.66667V8.33333H4.99935C4.53914 8.33333 4.16602 8.70646 4.16602 9.16667V16.6663C4.16602 17.1265 4.53914 17.4996 4.99935 17.4996L14.9993 17.5C15.4596 17.5 15.8327 17.127 15.8327 16.6667V9.16667C15.8327 8.70646 15.4596 8.33333 14.9993 8.33333H14.166ZM5.83268 10V15.8333H14.1668L14.166 10H5.83268ZM7.49935 6.66667C7.49935 5.28829 8.62097 4.16667 9.99935 4.16667C11.3777 4.16667 12.4993 5.28829 12.4993 6.66667V8.33333H7.49935V6.66667Z" fill="#00EFC3"/>
</svg>