<svg xmlns="http://www.w3.org/2000/svg" width="20" height="20" viewBox="0 0 20 20" fill="none">
  <path fill-rule="evenodd" clip-rule="evenodd" d="M5.00001 3.33335V12.5401L10 16.6026L15 12.5401V3.33335H5.00001ZM4.16668 1.66669C3.70644 1.66669 3.33334 2.03979 3.33334 2.50002V12.9367C3.33334 13.1877 3.44643 13.4253 3.64119 13.5834L9.47451 18.323C9.78068 18.5719 10.2193 18.5719 10.5255 18.323L16.3588 13.5834C16.5536 13.4253 16.6667 13.1877 16.6667 12.9367V2.50002C16.6667 2.03979 16.2936 1.66669 15.8333 1.66669H4.16668Z" fill="#F2F2F2"/>
  <path fill-rule="evenodd" clip-rule="evenodd" d="M14.3106 7.28328L9.19043 11.9379L6.13318 9.39016L7.20015 8.10982L9.14285 9.72874L13.1894 6.05005L14.3106 7.28328Z" fill="#F2F2F2"/>
</svg>