<svg width="24" height="25" viewBox="0 0 24 25" fill="none" xmlns="http://www.w3.org/2000/svg">
<g id="svgviewer-output 1" clip-path="url(#clip0_43_8945)">
<path id="Vector" d="M20.4 0.5H3.6C1.61177 0.5 0 2.11177 0 4.1V20.9C0 22.8882 1.61177 24.5 3.6 24.5H20.4C22.3882 24.5 24 22.8882 24 20.9V4.1C24 2.11177 22.3882 0.5 20.4 0.5Z" fill="#5F01D1"/>
<g id="Group">
<path id="Vector_2" d="M9.51562 19.4375H6.60938L7.78125 16.6719L4.54688 8.9375H7.5L9.23438 13.3906L10.9688 8.9375H13.875M16.5938 12.5H13.3594L16.2656 5.5625H19.5" fill="white"/>
<path id="Vector_3" d="M14.2031 16.7188C15.1869 16.7188 15.9844 15.9213 15.9844 14.9375C15.9844 13.9537 15.1869 13.1562 14.2031 13.1562C13.2194 13.1562 12.4219 13.9537 12.4219 14.9375C12.4219 15.9213 13.2194 16.7188 14.2031 16.7188Z" fill="white"/>
</g>
</g>
<defs>
<clipPath id="clip0_43_8945">
<rect width="24" height="24" fill="white" transform="translate(0 0.5)"/>
</clipPath>
</defs>
</svg>
