<?xml version="1.0" encoding="UTF-8"?>
<svg id="Layer_2" data-name="Layer 2" xmlns="http://www.w3.org/2000/svg" viewBox="0 0 504 504">
  <defs>
    <style>
      .cls-1 {
        fill: #231f20;
      }
    </style>
  </defs>
  <g id="Layer_1-2" data-name="Layer 1">
    <path class="cls-1" d="m252,0C112.8,0,0,112.8,0,252s112.8,252,252,252,252-112.8,252-252S391.2,0,252,0Zm-31.8,129.8c0-17.5,14.3-31.8,31.8-31.8s31.8,14.3,31.8,31.8v141.7c0,17.5-14.3,31.8-31.8,31.8s-31.8-14.3-31.8-31.8v-141.7Zm31.8,276.2c-20,0-36.3-16.3-36.3-36.3s16.3-36.3,36.3-36.3,36.3,16.3,36.3,36.3-16.3,36.3-36.3,36.3Z"/>
  </g>
</svg>