<svg width="25" height="25" viewBox="0 0 25 25" fill="none" xmlns="http://www.w3.org/2000/svg">
<g id="Frame 2608178" clip-path="url(#clip0_63_1020)">
<g id="&#240;&#159;&#166;&#134; icon &#34;file type outlook&#34;">
<g id="Group">
<path id="Vector" d="M15.3553 5.58887V10.2834L16.9976 11.3163C17.0569 11.3293 17.1183 11.3293 17.1776 11.3163L24.2388 6.55572C24.2336 6.32468 24.1491 6.10245 23.9994 5.92638C23.8497 5.75031 23.644 5.63113 23.4168 5.58887H15.3553Z" fill="#0072C6"/>
<path id="Vector_2" d="M15.3552 12.0348L16.8527 13.0633C16.9228 13.106 17.0033 13.1286 17.0854 13.1286C17.1675 13.1286 17.248 13.106 17.3181 13.0633C17.0609 13.2185 24.2378 8.45361 24.2378 8.45361V17.0816C24.2565 17.2564 24.2368 17.4333 24.18 17.5997C24.1233 17.7661 24.0308 17.9181 23.9092 18.0451C23.7875 18.172 23.6396 18.2708 23.4758 18.3347C23.3119 18.3985 23.1361 18.4257 22.9607 18.4145H15.3544L15.3552 12.0348Z" fill="#0072C6"/>
<path id="Vector_3" d="M7.60307 9.87065C7.35426 9.86945 7.10977 9.93559 6.8955 10.062C6.68122 10.1885 6.50515 10.3706 6.38593 10.5889C6.06031 11.1678 5.90408 11.8266 5.93507 12.4901C5.90123 13.1522 6.05768 13.8101 6.38593 14.3861C6.50465 14.5955 6.67639 14.7699 6.88389 14.8919C7.0914 15.0139 7.32735 15.0791 7.56805 15.0811C7.80875 15.083 8.04572 15.0215 8.25513 14.9028C8.46455 14.7841 8.63904 14.6124 8.76107 14.4049C9.08574 13.8316 9.23895 13.1771 9.2025 12.5192C9.23968 11.8407 9.09153 11.1648 8.77393 10.5641C8.66043 10.3528 8.49138 10.1766 8.28503 10.0544C8.07869 9.93216 7.84288 9.86864 7.60307 9.87065Z" fill="#0072C6"/>
<path id="Vector_4" d="M0.5 3.20429V21.5703L14.4714 24.5V0.5L0.5 3.20429ZM9.84971 15.4923C9.58836 15.8607 9.24084 16.1597 8.83745 16.363C8.43407 16.5663 7.98707 16.6679 7.53543 16.6589C7.09515 16.6667 6.6595 16.5681 6.26553 16.3714C5.87155 16.1747 5.53091 15.8857 5.27257 15.5291C4.65987 14.6737 4.35338 13.6368 4.40257 12.5857C4.35045 11.4831 4.66249 10.394 5.29057 9.48629C5.55523 9.1108 5.9082 8.80619 6.31837 8.59931C6.72854 8.39243 7.1833 8.28964 7.64257 8.3C8.07966 8.29123 8.51221 8.38988 8.90227 8.5873C9.29233 8.78473 9.62796 9.07487 9.87971 9.43229C10.4863 10.3063 10.7876 11.3559 10.7369 12.4186C10.7903 13.5132 10.4782 14.5945 9.84971 15.4923Z" fill="#0072C6"/>
</g>
</g>
</g>
<defs>
<clipPath id="clip0_63_1020">
<rect width="24" height="24" fill="white" transform="translate(0.5 0.5)"/>
</clipPath>
</defs>
</svg>
