<svg xmlns="http://www.w3.org/2000/svg" width="20" height="20" viewBox="0 0 20 20" fill="none">
<path fill-rule="evenodd" clip-rule="evenodd" d="M6.66732 6.66536C6.66732 8.50369 8.16227 9.9987 10.0007 9.9987C11.839 9.9987 13.334 8.50369 13.334 6.66536C13.334 4.82704 11.839 3.33203 10.0007 3.33203C8.16227 3.33203 6.66732 4.82704 6.66732 6.66536ZM8.33398 6.66536C8.33398 5.74536 9.08146 4.9987 10.0007 4.9987C10.9198 4.9987 11.6673 5.74536 11.6673 6.66536C11.6673 7.58453 10.9198 8.33203 10.0007 8.33203C9.08146 8.33203 8.33398 7.58453 8.33398 6.66536Z" fill="#F2F2F2"/>
<path fill-rule="evenodd" clip-rule="evenodd" d="M3.75065 16.6654C3.52055 16.6654 3.33398 16.4788 3.33398 16.2487V15.832C3.33398 12.8879 6.07568 10.832 10.0007 10.832C13.9256 10.832 16.6673 12.8879 16.6673 15.832V16.2487C16.6673 16.4788 16.4808 16.6654 16.2507 16.6654H3.75065ZM14.869 14.9987H5.1332C5.63155 13.492 7.49485 12.4987 10.0016 12.4987C12.5082 12.4987 14.3707 13.492 14.869 14.9987Z" fill="#F2F2F2"/>
</svg>