<svg xmlns="http://www.w3.org/2000/svg" width="20" height="20" viewBox="0 0 20 20" fill="none">
  <path fill-rule="evenodd" clip-rule="evenodd" d="M1.66602 4.9987C1.66602 4.07822 2.41221 3.33203 3.33268 3.33203H16.666C17.5865 3.33203 18.3327 4.07822 18.3327 4.9987V14.9987C18.3327 15.9124 17.5983 16.6654 16.6712 16.6654H3.33001C2.40604 16.6654 1.66602 15.9157 1.66602 14.9987V4.9987ZM16.666 4.9987H3.33268V14.9987H16.666V4.9987Z" fill="#F2F2F2"/>
  <path fill-rule="evenodd" clip-rule="evenodd" d="M9.16667 6.66536V5.83203H10.8333V6.66536H12.5V8.33203H9.16667V9.16536H11.5833C12.0896 9.16536 12.5 9.57578 12.5 10.082V12.4154C12.5 12.9216 12.0896 13.332 11.5833 13.332H10.8333V14.1654H9.16667V13.332H7.5V11.6654H10.8333V10.832H8.41667C7.91041 10.832 7.5 10.4216 7.5 9.91536V7.58203C7.5 7.07577 7.91041 6.66536 8.41667 6.66536H9.16667Z" fill="#F2F2F2"/>
</svg>