<svg xmlns="http://www.w3.org/2000/svg" width="20" height="20" viewBox="0 0 20 20" fill="none">
  <path fill-rule="evenodd" clip-rule="evenodd" d="M3.3325 10.0013C3.3325 9.68707 3.35427 9.37803 3.39628 9.0754L1.894 8.20799C1.69472 8.09294 1.62636 7.83811 1.74141 7.63883L3.82475 4.03044C3.9399 3.83116 4.19472 3.7628 4.394 3.87795L5.89709 4.74577C6.38202 4.36664 6.92076 4.05322 7.49998 3.81885V2.08464C7.49998 1.85453 7.68654 1.66797 7.91665 1.66797H12.0833C12.3134 1.66797 12.5 1.85453 12.5 2.08464V3.81956C13.0789 4.05393 13.6173 4.36735 14.1019 4.74628L15.6061 3.87795C15.8053 3.7628 16.0602 3.83116 16.1752 4.03044L18.2585 7.63883C18.3736 7.83811 18.3053 8.09294 18.1061 8.20799L16.6022 9.07631C16.6442 9.37864 16.6658 9.68738 16.6658 10.0013C16.6658 10.3152 16.6442 10.624 16.6022 10.9263L18.1061 11.7946C18.3053 11.9097 18.3736 12.1645 18.2585 12.3638L16.1752 15.9722C16.0602 16.1714 15.8053 16.2398 15.6061 16.1247L14.1019 15.2563C13.6173 15.6353 13.0789 15.9487 12.5 16.183V17.918C12.5 18.1481 12.3134 18.3346 12.0833 18.3346H7.91665C7.68654 18.3346 7.49998 18.1481 7.49998 17.918V16.1838C6.92076 15.9494 6.38202 15.636 5.89709 15.2568L4.394 16.1247C4.19472 16.2398 3.9399 16.1714 3.82475 15.9722L1.74141 12.3638C1.62636 12.1645 1.69472 11.9097 1.894 11.7946L3.39628 10.9272C3.35427 10.6246 3.3325 10.3155 3.3325 10.0013ZM10.8325 3.33464H9.16583V5.07048C7.95744 5.27311 6.89604 5.9093 6.14693 6.81354L4.64353 5.94552L3.8102 7.3889L5.31217 8.2561C5.10974 8.79942 4.99917 9.38749 4.99917 10.0013C4.99917 10.6146 5.10954 11.2021 5.31156 11.745L3.80939 12.6122L4.64272 14.0556L6.14581 13.1877C6.89502 14.0927 7.95683 14.7294 9.16583 14.9321V16.668H10.8325V14.9321C12.0417 14.7293 13.1037 14.0924 13.8529 13.1871L15.3572 14.0556L16.1906 12.6122L14.687 11.7442C14.8888 11.2015 14.9992 10.6143 14.9992 10.0013C14.9992 9.3877 14.8886 8.80003 14.6865 8.25692L16.1898 7.3889L15.3564 5.94552L13.8519 6.81415C13.1027 5.90961 12.0411 5.27321 10.8325 5.07048V3.33464ZM6.66583 10.0013C6.66583 11.8422 8.15824 13.3346 9.99917 13.3346C11.8401 13.3346 13.3325 11.8422 13.3325 10.0013C13.3325 8.16038 11.8401 6.66797 9.99917 6.66797C8.15824 6.66797 6.66583 8.16038 6.66583 10.0013ZM9.99915 11.668C10.9196 11.668 11.6658 10.9218 11.6658 10.0013C11.6658 9.08083 10.9196 8.33464 9.99915 8.33464C9.07867 8.33464 8.33248 9.08083 8.33248 10.0013C8.33248 10.9218 9.07867 11.668 9.99915 11.668Z" fill="#F2F2F2"/>
</svg>