<svg width="16" height="16" viewBox="0 0 16 16" fill="none" xmlns="http://www.w3.org/2000/svg">
<g id="user">
<g id="Group">
<path id="Shape" opacity="0.68" d="M12.8141 4.55697C12.9868 3.4678 12.8129 2.72686 12.2171 2.05551C11.5612 1.31657 10.3762 1 8.86013 1H4.45924C4.14944 1 3.88551 1.22288 3.83734 1.52562L2.00467 13.015C1.96862 13.2418 2.14587 13.4467 2.37778 13.4467H5.0947L4.9072 14.6224C4.87562 14.8208 5.03052 15 5.23358 15H7.52374C7.79473 15 8.02549 14.8051 8.06775 14.5403L8.09025 14.425L8.52163 11.7202L8.54946 11.5708C8.59172 11.3061 8.82248 11.1109 9.09348 11.1109H9.43602C11.6546 11.1109 13.3918 10.2198 13.8994 7.64251C14.1115 6.56561 14.0018 5.66667 13.4409 5.03467C13.2714 4.84388 13.0602 4.68588 12.8141 4.55697Z" fill="#E6E6E6"/>
<path id="Shape_2" opacity="0.7" d="M12.8141 4.55697C12.9868 3.4678 12.8129 2.72686 12.2171 2.05551C11.5612 1.31657 10.3762 1 8.86013 1H4.45924C4.14944 1 3.88551 1.22288 3.83734 1.52562L2.00467 13.015C1.96862 13.2418 2.14587 13.4467 2.37778 13.4467H5.0947L5.77717 9.16774L5.75597 9.30192C5.80428 8.99933 6.06576 8.7763 6.3757 8.7763H7.6671C10.2031 8.7763 12.189 7.75758 12.7691 4.81151C12.7864 4.72452 12.8009 4.63996 12.8141 4.55697Z" fill="#E6E6E6"/>
<path id="Shape_3" d="M6.51041 4.57137C6.5394 4.38942 6.65766 4.24026 6.81674 4.16497C6.889 4.13074 6.96991 4.11163 7.05457 4.11163H10.5043C10.913 4.11163 11.2941 4.13816 11.6424 4.19363C11.7419 4.20946 11.8388 4.22771 11.933 4.24839C12.027 4.26906 12.1185 4.29202 12.2069 4.31769C12.2511 4.33038 12.2946 4.34393 12.3374 4.3579C12.5084 4.41409 12.6678 4.48025 12.8143 4.55711C12.9871 3.46795 12.8132 2.72701 12.2174 2.05565C11.5612 1.31657 10.3762 1 8.86013 1H4.45924C4.14944 1 3.88551 1.22288 3.83734 1.52562L2.00467 13.015C1.96862 13.2418 2.14587 13.4467 2.37778 13.4467H5.0947L5.77717 9.16774L6.51041 4.57137Z" fill="#E6E6E6"/>
</g>
</g>
</svg>
