<svg width="96" height="96" viewBox="0 0 96 96" fill="none" xmlns="http://www.w3.org/2000/svg">
<g id="Check in a Circle">
<path id="Vector" fill-rule="evenodd" clip-rule="evenodd" d="M48 80C65.6732 80 80 65.6732 80 48C80 30.3269 65.6732 16 48 16C30.3269 16 16 30.3269 16 48C16 65.6732 30.3269 80 48 80ZM48 88C70.0912 88 88 70.0912 88 48C88 25.9086 70.0912 8 48 8C25.9086 8 8 25.9086 8 48C8 70.0912 25.9086 88 48 88Z" fill="#00332A"/>
<path id="Vector_2" fill-rule="evenodd" clip-rule="evenodd" d="M70.8148 36.8418L41.9224 65.4592L25.3699 51.0136L30.6302 44.986L41.5776 54.5404L65.1852 31.158L70.8148 36.8418Z" fill="#00EFC3"/>
</g>
</svg>
