<svg width="25" height="20" viewBox="0 0 25 20" fill="none" xmlns="http://www.w3.org/2000/svg">
<g id="Gmail_icon_(2020) 1" clip-path="url(#clip0_43_8909)">
<path id="Vector" d="M2.51136 19.2499H6.32955V9.97714L0.875 5.88623V17.6135C0.875 18.519 1.60864 19.2499 2.51136 19.2499Z" fill="#4285F4"/>
<path id="Vector_2" d="M19.4204 19.2499H23.2386C24.144 19.2499 24.875 18.5162 24.875 17.6135V5.88623L19.4204 9.97714" fill="#34A853"/>
<path id="Vector_3" d="M19.4204 2.88612V9.97703L24.875 5.88612V3.7043C24.875 1.68067 22.565 0.527032 20.9477 1.74067" fill="#FBBC04"/>
<path id="Vector_4" d="M6.32959 9.97714V2.88623L12.875 7.79532L19.4205 2.88623V9.97714L12.875 14.8862" fill="#EA4335"/>
<path id="Vector_5" d="M0.875 3.7043V5.88612L6.32955 9.97703V2.88612L4.80227 1.74067C3.18227 0.527032 0.875 1.68067 0.875 3.7043Z" fill="#C5221F"/>
</g>
<defs>
<clipPath id="clip0_43_8909">
<rect width="24" height="18.75" fill="white" transform="translate(0.875 0.5)"/>
</clipPath>
</defs>
</svg>
