<svg xmlns="http://www.w3.org/2000/svg" width="20" height="20" viewBox="0 0 20 20" fill="none">
  <path d="M9.27963 4.99254C9.44235 5.15526 9.44235 5.41908 9.27963 5.5818L5.69448 9.16695H17.0826C17.3127 9.16695 17.4993 9.3535 17.4993 9.58362V10.4169C17.4993 10.6471 17.3127 10.8336 17.0826 10.8336H5.6926L9.27963 14.4206C9.44235 14.5834 9.44235 14.8472 9.27963 15.0099L8.69037 15.5992C8.52765 15.7619 8.26383 15.7619 8.10112 15.5992L2.79782 10.2958C2.6351 10.1331 2.6351 9.86931 2.79782 9.70659L8.10112 4.40329C8.26384 4.24057 8.52766 4.24057 8.69038 4.40329L9.27963 4.99254Z" fill="#F2F2F2"/>
</svg>