<?xml version="1.0" encoding="UTF-8"?>
<svg id="Layer_2" data-name="Layer 2" xmlns="http://www.w3.org/2000/svg" viewBox="0 0 537.6 537.6">
  <defs>
    <style>
      .cls-1 {
        fill: #34c759;
      }
    </style>
  </defs>
  <g id="Layer_1-2" data-name="Layer 1">
    <path class="cls-1" d="m268.8,0C120.4,0,0,120.4,0,268.8s120.4,268.8,268.8,268.8,268.8-120.4,268.8-268.8S417.2,0,268.8,0h0Zm138.3,203.8l-157.9,158.5c-5,5-12.3,8.4-19.6,8.4s-14.6-2.8-19.6-8.4l-79.5-79.5c-11.2-11.2-11.2-28.6,0-39.8s28.6-11.2,39.8,0l59.4,59.4,138.3-138.3c11.2-11.2,28.6-11.2,39.8,0,10.5,11.2,10.5,28.5-.7,39.7h0Z"/>
  </g>
</svg>