<svg width="21" height="25" viewBox="0 0 21 25" fill="none" xmlns="http://www.w3.org/2000/svg">
<g id="Apple_logo_black 1" clip-path="url(#clip0_63_1715)">
<path id="Vector" d="M19.7461 8.6816C19.6008 8.7896 17.0351 10.1744 17.0351 13.2536C17.0351 16.8152 20.2999 18.0752 20.3976 18.1064C20.3825 18.1832 19.8789 19.832 18.6763 21.512C17.6039 22.9904 16.4839 24.4664 14.7802 24.4664C13.0764 24.4664 12.6379 23.5184 10.6711 23.5184C8.75434 23.5184 8.07284 24.4976 6.51439 24.4976C4.95595 24.4976 3.86855 23.1296 2.61828 21.4496C1.17009 19.4768 0 16.412 0 13.5032C0 8.8376 3.167 6.3632 6.28388 6.3632C7.94004 6.3632 9.32059 7.4048 10.3604 7.4048C11.3501 7.4048 12.8935 6.3008 14.7776 6.3008C15.4917 6.3008 18.0574 6.3632 19.7461 8.6816ZM13.8832 4.3256C14.6624 3.44 15.2136 2.2112 15.2136 0.9824C15.2136 0.812 15.1986 0.6392 15.166 0.5C13.8982 0.5456 12.3899 1.3088 11.4804 2.3192C10.7663 3.0968 10.0998 4.3256 10.0998 5.5712C10.0998 5.7584 10.1324 5.9456 10.1474 6.0056C10.2276 6.02 10.3579 6.0368 10.4882 6.0368C11.6257 6.0368 13.0563 5.3072 13.8832 4.3256Z" fill="#999999"/>
</g>
<defs>
<clipPath id="clip0_63_1715">
<rect width="21" height="24" fill="white" transform="translate(0 0.5)"/>
</clipPath>
</defs>
</svg>
