<?xml version="1.0" encoding="UTF-8"?>
<svg id="Layer_2" data-name="Layer 2" xmlns="http://www.w3.org/2000/svg" viewBox="0 0 999.87 999.84">
  <defs>
    <style>
      .cls-1 {
        fill: #231f20;
      }
    </style>
  </defs>
  <g id="Layer_1-2" data-name="Layer 1">
    <g id="Layer_2-2" data-name="Layer 2">
      <g id="Layer_1-2" data-name="Layer 1-2">
        <path class="cls-1" d="m477.4,852.23c-6.9-22.6-13.4-43.9-20-65.2-19.6-62.9-39.3-125.8-58.6-188.7-2-6.5-4.7-10-12.1-11.7-115.7-26.2-231.4-52.7-347-79.4-3.4-1-6.2-3.4-7.6-6.7-9-27.4-17.6-54.9-25.9-82.6-1.4-4.6-1.7-9.6-.8-14.4,8.2-41.4,21.6-81.7,40-119.8.2-.5.8-.7,1.9-1.7,3,9.1,5.8,18,8.6,26.8s5.8,18.1,8.6,27.2c10,31.7,20.1,63.3,29.9,95,1.7,5.6,4.4,8.1,10.5,9.5,116,26.3,231.9,52.8,347.7,79.6,3.4.9,6.3,3.2,7.8,6.4,47.5,152.9,94.7,305.7,141.8,458.6.4,1.3.7,2.6,1.4,5.3l-53.2,7.5c-.8.1-1.7.1-2.5.1-8.5.3-19.3,3.9-24.7,0s-5.9-15.1-8.4-23.2c-3.1-9.8-6-19.8-9.3-29.6-.8-2.2-2.8-5.2-4.8-5.7-27.4-6.5-55-12.7-83-19l-18.2,68.7-75-19.3c6.4-22.4,12.5-44.1,18.8-66.3l-80.4-18.4c-8-1.8-16.2-3.1-24-5.5-5.1-1.5-8,0-11.2,3.7-6.8,7.8-14.1,15.2-22.2,23.7l-61.3-51.3,35.6-37.7c6.9-7.4,14.1-14.5,20.8-22.1,2.8-4,7.9-5.6,12.6-4.1,85.1,19.7,170.2,39.2,255.4,58.6,2.5.6,4.9,1,8.8,1.7h0Z"/>
        <path class="cls-1" d="m150.5,309.53l94.4,21.5c26.8,6.1,53.6,12.1,80.3,18.5,3.9,1.3,8.2,0,10.7-3.2,60.4-64.3,120.9-128.5,181.5-192.6,3.3-3.6,3.5-6.6,2.2-10.9-13.9-44.2-27.4-88.4-41-132.6-.9-2.8-1.6-5.6-2.9-10.1,11.6,0,22.2-.3,32.8,0,15.4.7,30.7,1.9,46.1,2.7,4.4.2,6.6,1.5,8,6.2,15.8,52.4,31.9,104.7,47.6,157.1.8,2.5-1,6.7-2.9,8.7-56.8,60.5-113.7,121-170.6,181.3l-14.8,15.7,66.2,15c65.9,15,131.8,29.9,197.6,45,5.6,1.3,9.2.6,13.4-3.9,68-72.6,136.1-145,204.4-217.3,1.7-1.8,2.9-3.9,5.8-7.9,13.5,22.1,25.4,42.3,38,61.9,5.3,8.2,3.7,13.1-2.8,19.8-73.2,77.2-146.1,154.5-218.8,232-3.2,3.4-5.8,5.3-11,4.1-78.4-18.1-156.8-36.1-235.3-54-98.5-22.5-197.1-45.1-295.6-67.7-3.2-.7-6-2.8-7.5-5.7-8.7-27.3-16.9-54.6-25.8-83.6h0Z"/>
        <path class="cls-1" d="m877.9,556.43c-13.2,14.1-25.7,27.2-38,40.3-48.9,52.1-97.9,104.2-146.9,156.3-3.5,3-4.7,7.9-2.9,12.2,18,57.7,35.7,115.4,54.1,174.9l-74,33c-6.4-20.4-12.4-39.6-18.3-58.8-17.5-56.8-34.8-113.6-52.5-170.1-1.7-4-.5-8.6,2.8-11.4,124.1-131.8,248.3-263.6,372.4-395.4.9-1,2-1.8,4.8-4.4,6.6,26.5,12.2,51.6,19.1,76.4,3.4,12.2.5,20.6-8.8,29.3-15.3,14.5-29,30.6-43.7,45.7-3.3,2.9-4.4,7.5-2.7,11.5,13.8,43.9,27.5,87.8,40.7,131.9,1.9,6.1,2,12.6.4,18.8-10.8,35.5-25.6,69.6-44.1,101.7l-2,3.6c-20.4-65.8-40.1-129.8-60.4-195.5h0Z"/>
        <path class="cls-1" d="m74.2,769.63c-10.3-19-20.5-37-29.7-55.4-9.7-19.3-9.3-19.5,5.6-35.4,6.3-6.8,12.7-13.5,19.9-21.2-15.1-3.3-29.2-7-43.4-9.4-7.2-1.2-10.2-4.4-11.6-11.1-4.6-22.6-9.6-45.2-14.3-67.8-.4-2.7-.6-5.5-.7-8.2,16.9,3.7,33.1,7.3,49.3,10.9,86.5,19.4,173,38.9,259.5,58.4,3,.7,5.5,2.6,7,5.3,8.6,27.2,16.9,54.6,25.6,83.3-14.5-3.2-28-6.2-41.5-9.3-44.4-10.1-88.9-20.2-133.3-30.6-5.5-1.3-8,.9-11,4.2-24.5,26.2-49.1,52.3-73.7,78.4l-7.7,7.9h0Z"/>
        <path class="cls-1" d="m811.2,103.93l59,53.2-72.5,77.6c-34.2,36.6-68.5,73.2-102.8,109.7-2.2,2.2-6,5.1-8.5,4.5-28.4-6.2-56.7-12.9-86-19.6,1.9-2.3,3-4,4.4-5.4,38.7-41.2,77.4-82.3,116.2-123.3,3.7-3.9,5-7.1,3.2-12.8-16.1-51.1-31.8-102.4-47.5-153.6-.2-.7-.2-1.5-.7-5,25.3,12.2,49.5,23,72.8,35.2,26.5,13.8,26.1,14.4,34.5,43.1,1.8,6.2,3.8,12.3,6.2,19.8l21.7-23.4h0Z"/>
        <path class="cls-1" d="m100.6,195.63c3-3.7,5.2-7,7.9-10,16.7-17.7,33.3-35.5,50.4-52.9,3-2.4,6.9-3.5,10.7-2.9,27.1,5.9,54.1,12.2,81.1,18.6,4.5,1.5,9.4-.1,12.2-3.8,10.7-12,22.1-23.6,33.1-35.5l-36.9-49.1c18.3-8.2,35.6-16.2,53.2-23.7s18-7.4,30,7.5c2.2,2.8,4.4,5.5,7.1,8.7l35.1-37.2,6.1,19.6c6.5,20.8,13.1,41.5,19.2,62.4.8,3.4,0,7-2.1,9.8-39.4,42.2-79,84.3-118.8,126.2-2.4,2.2-5.7,3.3-9,2.9-59.4-13.1-118.8-26.8-179.3-40.6h0Z"/>
        <path class="cls-1" d="m805.1,902.33c-7.8-24.8-14.7-46.8-21.6-68.7-2.8-9.1-5.2-18.4-8.6-27.3-2.1-4.2-1.1-9.2,2.5-12.2,19.4-20,38.5-40.3,58.6-61.4,6,19.3,11.7,37.7,17.3,56,5,16.1,10,32.2,14.8,48.4.7,2.2.9,6-.4,7.3-20.3,19-40.8,37.9-62.6,57.9h0Z"/>
        <path class="cls-1" d="m644.3,562.53l-63.6,67.5c-9.2-29.7-18-58.2-27.3-88.1l90.9,20.6h0Z"/>
      </g>
    </g>
  </g>
</svg>