<svg width="14" height="14" viewBox="0 0 14 14" fill="none" xmlns="http://www.w3.org/2000/svg">
<path d="M7.00004 13.6663C9.40592 13.6663 11.5141 12.3919 12.6864 10.4813C12.7828 10.3243 12.7226 10.1211 12.5609 10.0329L11.9754 9.71354C11.8139 9.62544 11.6124 9.68552 11.5142 9.84113C10.5698 11.3384 8.90108 12.333 7.00004 12.333C4.05452 12.333 1.66671 9.94519 1.66671 6.99967C1.66671 4.05416 4.05452 1.66634 7.00004 1.66634C8.81334 1.66634 10.4153 2.57127 11.3789 3.95416L10.2357 5.09731C10.0258 5.30729 10.1745 5.66634 10.4714 5.66634H13.3334C13.5175 5.66634 13.6667 5.5171 13.6667 5.33301V2.47108C13.6667 2.17411 13.3077 2.02539 13.0977 2.23538L12.3337 2.9994C11.1174 1.38029 9.18101 0.333008 7.00004 0.333008C3.31814 0.333008 0.333374 3.31778 0.333374 6.99967C0.333374 10.6816 3.31814 13.6663 7.00004 13.6663Z" fill="#F2F2F2"/>
</svg>