<svg width="14" height="16" viewBox="0 0 14 16" fill="none" xmlns="http://www.w3.org/2000/svg">
<path id="Vector" d="M10.3984 4.576C10.8238 4.34358 11.2269 4.06232 11.5714 3.72547C12.5394 2.77895 12.6513 1.35411 11.8211 0.544C11.4473 0.178526 10.9478 0 10.4225 0C9.78002 0 9.09966 0.267789 8.5657 0.788211C7.77165 1.56463 7.29109 2.63747 6.99828 3.58232C6.70546 2.63579 6.22318 1.56295 5.43086 0.788211C4.89862 0.267789 4.21826 0 3.57407 0C3.04872 0 2.54921 0.178526 2.17544 0.544C1.34523 1.35579 1.45719 2.77895 2.4252 3.72547C2.76969 4.06232 3.17446 4.34358 3.59818 4.576H0V8.73095H0.566683V16H13.4333V8.73095H14V4.576H10.3984ZM3.27264 2.90021C3.0091 2.64253 2.84547 2.31411 2.81964 1.99411C2.80758 1.84589 2.81964 1.568 3.02288 1.36926C3.19341 1.20253 3.41732 1.16884 3.57579 1.16884C3.92889 1.16884 4.29749 1.33221 4.58686 1.61516C5.14838 2.16421 5.61171 3.04 5.9252 4.14484C5.93381 4.17516 5.94242 4.20379 5.94931 4.23411C5.91831 4.22568 5.88903 4.21895 5.85802 4.21053C4.7281 3.904 3.83415 3.45095 3.27092 2.90189H3.27264V2.90021ZM6.37303 14.9608H1.62943V8.72926H6.37303V14.9608ZM6.37303 7.69179H1.06275V5.61516H6.37303V7.69179ZM8.0748 4.14316C8.38829 3.03832 8.85163 2.16253 9.41314 1.61347C9.70251 1.33053 10.0711 1.16716 10.4242 1.16716C10.5827 1.16716 10.8083 1.20253 10.9771 1.36758C11.1804 1.56632 11.1907 1.84421 11.1786 1.99242C11.1528 2.31074 10.9892 2.64084 10.7256 2.89853C10.1641 3.44758 9.26846 3.90063 8.13853 4.20716C8.10753 4.21558 8.07825 4.224 8.04725 4.23074C8.05586 4.20211 8.06275 4.17179 8.07136 4.14147H8.0748V4.14316ZM12.3723 14.9625H7.62869V8.73095H12.3723V14.9625ZM12.939 7.69347H7.62869V5.61684H12.939V7.69347Z" fill="#00EFC3"/>
</svg>
