<svg width="20" height="20" viewBox="0 0 20 20" fill="none" xmlns="http://www.w3.org/2000/svg">
<path d="M10.8333 5.34554V12.9172C10.8333 13.1473 10.6468 13.3339 10.4167 13.3339H9.58335C9.35323 13.3339 9.16668 13.1473 9.16668 12.9172V5.34554L7.55047 6.96174C7.38776 7.12446 7.12394 7.12446 6.96122 6.96174L6.37214 6.37266C6.20942 6.20994 6.20942 5.94613 6.37214 5.78341L9.70539 2.45016C9.8681 2.28745 10.1319 2.28745 10.2946 2.45016L13.6279 5.78341C13.7906 5.94613 13.7906 6.20994 13.6279 6.37266L13.0388 6.96174C12.8761 7.12446 12.6123 7.12446 12.4496 6.96174L10.8333 5.34554Z" fill="white" fill-opacity="0.95"/>
<path d="M2.5 12.9172C2.5 12.6871 2.68655 12.5005 2.91667 12.5005H3.75C3.98012 12.5005 4.16667 12.6871 4.16667 12.9172V15.8339H15.8333V12.9172C15.8333 12.6871 16.0199 12.5005 16.25 12.5005H17.0833C17.3135 12.5005 17.5 12.6871 17.5 12.9172V16.6672C17.5 17.1274 17.1269 17.5005 16.6667 17.5005H3.33333C2.8731 17.5005 2.5 17.1274 2.5 16.6672V12.9172Z" fill="white" fill-opacity="0.95"/>
</svg>
