<svg xmlns="http://www.w3.org/2000/svg" width="36" height="36" viewBox="0 0 36 36" fill="none">
                                        <path d="M15.4035 4.08305L4.54305 9.29606C1.6654 10.6773 2.64924 15.0006 5.84124 15.0006H30.1586C33.3506 15.0006 34.3344 10.6773 31.4567 9.29606L20.5962 4.08305C18.9549 3.29523 17.0448 3.29523 15.4035 4.08305Z" fill="white" />
                                        <path fillRule="evenodd" clipRule="evenodd" d="M18 16.5C18.8284 16.5 19.5 17.1716 19.5 18V27C19.5 27.8285 18.8284 28.5 18 28.5C17.1716 28.5 16.5 27.8285 16.5 27V18C16.5 17.1716 17.1716 16.5 18 16.5Z" fill="#8D93A5" />
                                        <path fillRule="evenodd" clipRule="evenodd" d="M7.5 16.5C8.32842 16.5 9 17.1716 9 18V27C9 27.8285 8.32842 28.5 7.5 28.5C6.67158 28.5 6 27.8285 6 27V18C6 17.1716 6.67158 16.5 7.5 16.5Z" fill="#8D93A5" />
                                        <path fillRule="evenodd" clipRule="evenodd" d="M28.5 16.5C29.3284 16.5 30 17.1716 30 18V27C30 27.8285 29.3284 28.5 28.5 28.5C27.6716 28.5 27 27.8285 27 27V18C27 17.1716 27.6716 16.5 28.5 16.5Z" fill="#8D93A5" />
                                        <path fillRule="evenodd" clipRule="evenodd" d="M3 31.5C3 30.6716 3.67158 30 4.5 30H31.5C32.3284 30 33 30.6716 33 31.5C33 32.3284 32.3284 33 31.5 33H4.5C3.67158 33 3 32.3284 3 31.5Z" fill="white" />
                                    </svg>