<svg xmlns="http://www.w3.org/2000/svg" width="36" height="36" viewBox="0 0 36 36" fill="none">
                                        <path fillRule="evenodd" clipRule="evenodd" d="M3 17.0047C3 15.7289 3.54144 14.5133 4.48966 13.6599L14.9897 4.20986C16.701 2.66963 19.299 2.66963 21.0103 4.20986L31.5104 13.6599C32.4585 14.5133 33 15.7289 33 17.0047V28.5005C33 30.9859 30.9853 33.0005 28.5 33.0005H24H23.9916H12.0084H12H7.5C5.01472 33.0005 3 30.9859 3 28.5005V17.0047Z" fill="white" />
                                        <path d="M13.5 24C13.5 22.3431 14.8431 21 16.5 21H19.5C21.1569 21 22.5 22.3431 22.5 24V33H13.5V24Z" fill="#8D93A5" />
                                    </svg>