<svg xmlns="http://www.w3.org/2000/svg" width="36" height="36" viewBox="0 0 36 36" fill="none">
                                        <path d="M21 12H25.5C27.9854 12 30 14.0147 30 16.5V33H21V12Z" fill="#8D93A5" />
                                        <path d="M6 11.01C6 8.94513 7.40533 7.14521 9.40858 6.64439L18.4086 4.39439C21.2487 3.68435 24 5.83247 24 8.76003V32.9965H6V11.01Z" fill="white" />
                                        <path fillRule="evenodd" clipRule="evenodd" d="M12 25.5C12 24.6716 12.6716 24 13.5 24H16.5C17.3285 24 18 24.6716 18 25.5C18 26.3284 17.3285 27 16.5 27H13.5C12.6716 27 12 26.3284 12 25.5Z" fill="#8D93A5" />
                                        <path fillRule="evenodd" clipRule="evenodd" d="M12 19.5C12 18.6716 12.6716 18 13.5 18H16.5C17.3285 18 18 18.6716 18 19.5C18 20.3284 17.3285 21 16.5 21H13.5C12.6716 21 12 20.3284 12 19.5Z" fill="#8D93A5" />
                                        <path fillRule="evenodd" clipRule="evenodd" d="M12 13.5C12 12.6716 12.6716 12 13.5 12H16.5C17.3285 12 18 12.6716 18 13.5C18 14.3284 17.3285 15 16.5 15H13.5C12.6716 15 12 14.3284 12 13.5Z" fill="#8D93A5" />
                                        <path fillRule="evenodd" clipRule="evenodd" d="M3 31.5C3 30.6716 3.67158 30 4.5 30H31.5C32.3284 30 33 30.6716 33 31.5C33 32.3284 32.3284 33 31.5 33H4.5C3.67158 33 3 32.3284 3 31.5Z" fill="white" />
                                    </svg>