<svg width="44" height="44" viewBox="0 0 44 44" fill="none" xmlns="http://www.w3.org/2000/svg">
<g clip-path="url(#clip0_2640_15593)">
<rect x="2" y="2" width="40" height="40" rx="6" fill="#1877F2"/>
<g clip-path="url(#clip1_2640_15593)">
<path d="M42 22.0008C42 10.9551 33.0457 2.00078 22 2.00078C10.9543 2.00078 2 10.9551 2 22.0008C2 31.9834 9.31371 40.2574 18.875 41.7578V27.782H13.7969V22.0008H18.875V17.5945C18.875 12.582 21.8609 9.81328 26.4293 9.81328C28.6175 9.81328 30.9062 10.2039 30.9062 10.2039V15.1258H28.3843C25.8998 15.1258 25.125 16.6675 25.125 18.2491V22.0008H30.6719L29.7852 27.782H25.125V41.7578C34.6863 40.2574 42 31.9834 42 22.0008Z" fill="#1877F2"/>
<path d="M29.7852 27.7812L30.6719 22H25.125V18.2483C25.125 16.6667 25.8998 15.125 28.3843 15.125H30.9063V10.2031C30.9063 10.2031 28.6175 9.8125 26.4293 9.8125C21.8609 9.8125 18.875 12.5813 18.875 17.5938V22H13.7969V27.7812H18.875V41.757C19.8932 41.9168 20.9369 42 22 42C23.0631 42 24.1068 41.9168 25.125 41.757V27.7812H29.7852Z" fill="white"/>
</g>
</g>
<rect x="1" y="1" width="42" height="42" rx="7" stroke="#2C303A" stroke-width="2"/>
<defs>
<clipPath id="clip0_2640_15593">
<rect x="2" y="2" width="40" height="40" rx="6" fill="white"/>
</clipPath>
<clipPath id="clip1_2640_15593">
<rect width="40" height="40" fill="white" transform="translate(2 2)"/>
</clipPath>
</defs>
</svg>
