<svg width="44" height="44" viewBox="0 0 44 44" fill="none" xmlns="http://www.w3.org/2000/svg">
<g clip-path="url(#clip0_2640_15605)">
<rect x="2" y="2" width="40" height="40" rx="6" fill="#0A66C2"/>
<rect x="8" y="8" width="30" height="29" fill="white"/>
<g clip-path="url(#clip1_2640_15605)">
<path d="M34.8186 34.5771H29.8072V26.5223C29.8072 24.6015 29.7738 22.1289 27.2007 22.1289C24.5905 22.1289 24.1912 24.2217 24.1912 26.3824V34.5766H19.1797V18.0126H23.9907V20.2762H24.058C24.5395 19.4313 25.2352 18.7363 26.0712 18.2651C26.9071 17.7939 27.8518 17.5643 28.8049 17.6006C33.8842 17.6006 34.8207 21.0295 34.8207 25.4904L34.8186 34.5771ZM13.525 15.7484C12.9499 15.7485 12.3875 15.5735 11.9092 15.2457C11.4309 14.9178 11.0581 14.4517 10.8379 13.9063C10.6177 13.361 10.56 12.7608 10.6721 12.1818C10.7842 11.6028 11.0611 11.0709 11.4677 10.6534C11.8744 10.2359 12.3925 9.95152 12.9567 9.83625C13.5208 9.72098 14.1055 9.77998 14.637 10.0058C15.1684 10.2316 15.6227 10.6141 15.9423 11.1049C16.262 11.5957 16.4327 12.1727 16.4328 12.7631C16.4328 13.155 16.3577 13.5432 16.2116 13.9053C16.0655 14.2675 15.8513 14.5966 15.5813 14.8738C15.3113 15.151 14.9907 15.3709 14.6379 15.521C14.2851 15.671 13.907 15.7483 13.525 15.7484ZM16.0308 34.5771H11.0141V18.0126H16.0308V34.5771ZM37.3171 5.00236H8.49583C7.84167 4.99479 7.2113 5.25407 6.74331 5.72323C6.27532 6.19239 6.00798 6.83305 6 7.50443V37.2072C6.00771 37.8789 6.27489 38.52 6.74287 38.9897C7.21084 39.4593 7.84134 39.7191 8.49583 39.712H37.3171C37.9728 39.7204 38.6051 39.4614 39.0749 38.9917C39.5448 38.5221 39.8137 37.8803 39.8228 37.2072V7.50229C39.8134 6.82958 39.5443 6.18819 39.0745 5.71904C38.6046 5.24989 37.9725 4.99135 37.3171 5.00022" fill="#0A66C2"/>
<path d="M43.6709 35.2227C43.0612 35.2287 42.4785 35.4823 42.0505 35.928C41.6225 36.3736 41.3838 36.9752 41.3867 37.601C41.3897 38.2268 41.634 38.8259 42.0662 39.2674C42.4984 39.7088 43.0833 39.9566 43.6931 39.9566C44.3028 39.9566 44.8877 39.7088 45.3199 39.2674C45.7521 38.8259 45.9964 38.2268 45.9994 37.601C46.0023 36.9752 45.7637 36.3736 45.3356 35.928C44.9076 35.4823 44.325 35.2287 43.7152 35.2227H43.6709ZM43.6709 39.6857C43.271 39.6925 42.878 39.5774 42.5418 39.3551C42.2056 39.1327 41.9412 38.813 41.782 38.4365C41.6228 38.0599 41.576 37.6433 41.6474 37.2394C41.7189 36.8355 41.9055 36.4624 42.1836 36.1673C42.4617 35.8723 42.8188 35.6684 43.2097 35.5817C43.6006 35.4949 44.0079 35.529 44.3799 35.6798C44.752 35.8306 45.0721 36.0912 45.2998 36.4286C45.5275 36.7661 45.6526 37.1653 45.6593 37.5758C45.6593 37.5876 45.6593 37.5988 45.6593 37.6106C45.6705 38.1491 45.4728 38.67 45.1098 39.059C44.7468 39.4479 44.2482 39.6729 43.7236 39.6846H43.6714" fill="#0A66C2"/>
</g>
</g>
<rect x="1" y="1" width="42" height="42" rx="7" stroke="#2C303A" stroke-width="2"/>
<defs>
<clipPath id="clip0_2640_15605">
<rect x="2" y="2" width="40" height="40" rx="6" fill="white"/>
</clipPath>
<clipPath id="clip1_2640_15605">
<rect width="40" height="35" fill="white" transform="translate(6 5)"/>
</clipPath>
</defs>
</svg>
