<svg width="44" height="44" viewBox="0 0 44 44" fill="none" xmlns="http://www.w3.org/2000/svg">
<rect x="1" y="1" width="42" height="42" rx="7" fill="white"/>
<g clip-path="url(#clip0_2640_15637)">
<path d="M22 6C13.1638 6 6 13.1638 6 22C6 28.7819 10.214 34.5761 16.1663 36.907C16.0214 35.6428 15.9029 33.6938 16.2189 32.3111C16.5086 31.0601 18.0889 24.3572 18.0889 24.3572C18.0889 24.3572 17.6148 23.3959 17.6148 21.9868C17.6148 19.7613 18.9053 18.1021 20.5119 18.1021C21.8815 18.1021 22.5399 19.1292 22.5399 20.3539C22.5399 21.7235 21.6708 23.7778 21.2099 25.6872C20.828 27.2807 22.0132 28.5844 23.5802 28.5844C26.4247 28.5844 28.6107 25.5819 28.6107 21.2626C28.6107 17.4305 25.8584 14.7572 21.921 14.7572C17.3646 14.7572 14.6914 18.1679 14.6914 21.6971C14.6914 23.0667 15.2181 24.5416 15.8765 25.3449C16.0082 25.5029 16.0214 25.6477 15.9819 25.8058C15.8634 26.3062 15.5868 27.3992 15.5342 27.623C15.4683 27.9128 15.2971 27.9786 14.9942 27.8337C12.9926 26.8988 11.7416 23.9885 11.7416 21.6313C11.7416 16.5877 15.4025 11.9523 22.316 11.9523C27.8601 11.9523 32.1794 15.9029 32.1794 21.1967C32.1794 26.7144 28.7029 31.1523 23.8831 31.1523C22.2634 31.1523 20.7358 30.3095 20.2222 29.3086C20.2222 29.3086 19.4189 32.3638 19.2214 33.1144C18.8658 34.5103 17.8914 36.2486 17.2329 37.3152C18.7342 37.7761 20.3144 38.0263 21.9737 38.0263C30.8099 38.0263 37.9737 30.8626 37.9737 22.0263C38 13.1638 30.8362 6 22 6Z" fill="#E60023"/>
</g>
<rect x="1" y="1" width="42" height="42" rx="7" stroke="#2C303A" stroke-width="2"/>
<defs>
<clipPath id="clip0_2640_15637">
<rect width="32" height="32" fill="white" transform="translate(6 6)"/>
</clipPath>
</defs>
</svg>
