<svg width="44" height="44" viewBox="0 0 44 44" fill="none" xmlns="http://www.w3.org/2000/svg">
<g clip-path="url(#clip0_2640_15832)">
<rect x="2" y="2" width="40" height="40" rx="6" fill="white"/>
<g clip-path="url(#clip1_2640_15832)">
<path d="M42 2H2V42H42V2Z" fill="white"/>
<path d="M2 2H42V42H2V2ZM32.0281 35.9687L31.7062 33.6666C30.4409 33.7594 29.0641 33.1681 28.4875 31.4019C31.4572 29.4131 33.1062 26.9144 33.9719 23.7863C34.6359 21.5184 34.4684 18.0487 33.9697 16.0612C32.6538 10.8206 28.7416 7.705 22.9697 7.37063C17.5072 7.05406 12.5791 10.0228 10.4572 14.9737C9.75812 16.6047 9.39812 18.38 9.39812 20.5863C9.39812 27.2331 12.7888 31.805 18.6356 33.055C19.9697 33.3265 23.3762 33.4513 24.7262 33.0252C26.1744 35.4071 28.5044 37.3408 32.0262 35.9702L32.0281 35.9687ZM15.6406 24.6562C15.2281 22.8175 15.2722 18.4469 15.7217 16.6406C16.4001 13.9156 17.5501 12.2094 19.3748 11.2188C20.9942 10.5012 23.0029 10.3903 24.5029 11.0893C26.1335 11.8584 27.266 13.4118 27.9717 15.8456C28.6204 18.7096 28.7263 22.0581 27.9042 24.9706C27.6182 26.0177 27.2023 27.0446 26.6705 27.9762C25.3608 25.8328 22.383 24.8918 20.1517 25.7331L20.4648 27.9131C21.7067 27.6285 23.4048 28.8162 23.4917 29.9512C18.7605 30.6634 16.6886 28.5043 15.6417 24.6543L15.6406 24.6562Z" fill="#A82400"/>
</g>
</g>
<rect x="1" y="1" width="42" height="42" rx="7" stroke="#2C303A" stroke-width="2"/>
<defs>
<clipPath id="clip0_2640_15832">
<rect x="2" y="2" width="40" height="40" rx="6" fill="white"/>
</clipPath>
<clipPath id="clip1_2640_15832">
<rect width="40" height="40" fill="white" transform="translate(2 2)"/>
</clipPath>
</defs>
</svg>
