<svg xmlns="http://www.w3.org/2000/svg" width="36" height="36" viewBox="0 0 36 36" fill="none">
                                        <path d="M27 4.5H9C6.51472 4.5 4.5 6.51472 4.5 9V12C4.5 14.4853 6.51472 16.5 9 16.5H27C29.4853 16.5 31.5 14.4853 31.5 12V9C31.5 6.51472 29.4853 4.5 27 4.5Z" fill="white" />
                                        <path d="M27 19.5H9C6.51472 19.5 4.5 21.5147 4.5 24V27C4.5 29.4853 6.51472 31.5 9 31.5H27C29.4853 31.5 31.5 29.4853 31.5 27V24C31.5 21.5147 29.4853 19.5 27 19.5Z" fill="white" />
                                        <path fillRule="evenodd" clipRule="evenodd" d="M8.25 10.5C8.25 9.67158 8.92158 9 9.75 9H20.25C21.0785 9 21.75 9.67158 21.75 10.5C21.75 11.3284 21.0785 12 20.25 12H9.75C8.92158 12 8.25 11.3284 8.25 10.5Z" fill="#8D93A5" />
                                        <path fillRule="evenodd" clipRule="evenodd" d="M8.25 25.5C8.25 24.6716 8.92158 24 9.75 24H20.25C21.0785 24 21.75 24.6716 21.75 25.5C21.75 26.3284 21.0785 27 20.25 27H9.75C8.92158 27 8.25 26.3284 8.25 25.5Z" fill="#8D93A5" />
                                        <path d="M26.25 12C27.0784 12 27.75 11.3284 27.75 10.5C27.75 9.67157 27.0784 9 26.25 9C25.4216 9 24.75 9.67157 24.75 10.5C24.75 11.3284 25.4216 12 26.25 12Z" fill="#8D93A5" />
                                        <path d="M26.25 27C27.0784 27 27.75 26.3284 27.75 25.5C27.75 24.6716 27.0784 24 26.25 24C25.4216 24 24.75 24.6716 24.75 25.5C24.75 26.3284 25.4216 27 26.25 27Z" fill="#8D93A5" />
                                    </svg>