<svg xmlns="http://www.w3.org/2000/svg" width="60" height="60" viewBox="0 0 60 60" fill="none">
  <g clip-path="url(#clip0_4_412)">
    <path d="M50.4397 0C55.7188 0 60 4.28031 60 9.56117V50.4397C60 55.7188 55.7188 60 50.4397 60H9.56118C4.28119 60 0 55.7188 0 50.4397V9.56117C0 4.28031 4.28119 0 9.56118 0H50.4397Z" fill="#FFFC00"/>
    <path d="M50.2292 40.2854C50.0524 39.7002 49.2061 39.2876 49.2061 39.2876C49.1262 39.2455 49.0546 39.2076 48.9956 39.1782C47.5852 38.4961 46.3348 37.6751 45.2823 36.7447C44.4361 35.9953 43.7119 35.1701 43.1309 34.2944C42.4194 33.225 42.0868 32.3325 41.9437 31.8483C41.8637 31.5325 41.8763 31.4062 41.9437 31.242C41.9984 31.1031 42.1626 30.9726 42.2384 30.9094C42.7141 30.5726 43.4804 30.0758 43.9519 29.7727C44.3603 29.5075 44.7097 29.2801 44.916 29.137C45.577 28.6739 46.0317 28.2023 46.2969 27.6929C46.6422 27.0361 46.6843 26.312 46.4148 25.6005C46.0528 24.6406 45.156 24.068 44.015 24.068C43.7624 24.068 43.5014 24.0974 43.2404 24.1522C42.5878 24.2953 41.9689 24.5269 41.4511 24.729C41.4132 24.7458 41.3711 24.7163 41.3753 24.6742C41.43 23.3901 41.4932 21.664 41.35 20.0262C41.2237 18.5443 40.9164 17.2939 40.4196 16.2034C39.9186 15.1088 39.266 14.3005 38.7566 13.7152C38.2724 13.1595 37.4178 12.3385 36.1295 11.6018C34.3191 10.5661 32.2561 10.0398 29.9995 10.0398C27.7471 10.0398 25.6883 10.5661 23.8738 11.6018C22.5097 12.3806 21.6382 13.2605 21.2424 13.7152C20.733 14.3005 20.0804 15.1088 19.5794 16.2034C19.0784 17.2939 18.7753 18.5401 18.649 20.0262C18.5058 21.6724 18.5648 23.2596 18.6237 24.6742C18.6237 24.7163 18.5858 24.7458 18.5437 24.729C18.0259 24.5269 17.407 24.2953 16.7544 24.1522C16.4976 24.0974 16.2366 24.068 15.9797 24.068C14.843 24.068 13.9462 24.6406 13.58 25.6005C13.3105 26.312 13.3526 27.0361 13.6978 27.6929C13.9673 28.2023 14.4178 28.6739 15.0788 29.137C15.2809 29.2801 15.6345 29.5075 16.0429 29.7727C16.5018 30.0716 17.247 30.5558 17.727 30.8884C17.7859 30.9305 17.988 31.0821 18.0511 31.242C18.1185 31.4105 18.1311 31.5368 18.0427 31.8736C17.8954 32.3619 17.5628 33.2461 16.8639 34.2944C16.2829 35.1743 15.5587 35.9953 14.7125 36.7447C13.66 37.6751 12.4095 38.4961 10.9992 39.1782C10.9318 39.2118 10.8518 39.2497 10.7676 39.3002C10.7676 39.3002 9.92557 39.7297 9.76558 40.2854C9.52981 41.1064 10.1571 41.8769 10.7929 42.2894C11.837 42.9631 13.1084 43.3251 13.8452 43.523C14.0515 43.5777 14.2367 43.6283 14.4052 43.6788C14.5104 43.7125 14.7756 43.8135 14.8893 43.9609C15.0325 44.1461 15.0493 44.3735 15.0998 44.6303C15.1798 45.0639 15.3609 45.5986 15.8955 45.9691C16.485 46.3733 17.2302 46.4027 18.1774 46.4406C19.1668 46.4785 20.3962 46.5248 21.8066 46.9922C22.4591 47.2069 23.0528 47.5732 23.7348 47.9942C25.1663 48.8741 26.9472 49.9687 29.9869 49.9687C33.0308 49.9687 34.8243 48.8699 36.2642 47.9858C36.9462 47.569 37.5314 47.2069 38.1714 46.9964C39.5818 46.5291 40.8111 46.4827 41.8005 46.4449C42.7478 46.407 43.493 46.3817 44.0824 45.9733C44.655 45.5776 44.8192 44.9881 44.895 44.5461C44.9371 44.3272 44.9623 44.1293 45.0886 43.9693C45.1981 43.8304 45.4423 43.7335 45.556 43.6956C45.7286 43.6409 45.9222 43.5904 46.137 43.5314C46.8737 43.3336 47.8 43.102 48.9241 42.4663C50.2797 41.6958 50.3724 40.7527 50.2292 40.2854Z" fill="white"/>
    <path d="M51.3998 39.8307C51.1008 39.0139 50.5283 38.5803 49.8799 38.2182C49.7578 38.1466 49.6441 38.0877 49.5515 38.0456C49.3579 37.9446 49.16 37.8477 48.9621 37.7467C46.937 36.6731 45.354 35.3174 44.2594 33.7134C43.8889 33.1703 43.6321 32.6819 43.451 32.2819C43.3584 32.0125 43.3626 31.8609 43.43 31.722C43.4805 31.6167 43.6152 31.5073 43.691 31.4525C44.0405 31.221 44.3983 30.9894 44.6425 30.8336C45.0761 30.5516 45.4214 30.3284 45.6403 30.1769C46.4739 29.5959 47.0549 28.977 47.417 28.2865C47.9306 27.314 47.9938 26.2025 47.598 25.1584C47.0507 23.7101 45.6782 22.8091 44.0194 22.8091C43.6742 22.8091 43.3247 22.847 42.9795 22.9228C42.8869 22.9438 42.7985 22.9649 42.71 22.9859C42.7269 22.0008 42.7016 20.9482 42.6132 19.921C42.3017 16.3002 41.0344 14.4015 39.7124 12.89C39.1609 12.2585 38.201 11.3365 36.7611 10.5113C34.7529 9.35773 32.4794 8.77673 29.9996 8.77673C27.5283 8.77673 25.2548 9.35773 23.2466 10.5071C21.7983 11.3323 20.8384 12.2585 20.2911 12.8858C18.9691 14.3973 17.7018 16.296 17.3903 19.9168C17.3019 20.944 17.2808 21.9966 17.2935 22.9817C17.205 22.9607 17.1124 22.9396 17.024 22.9186C16.6788 22.8428 16.3251 22.8049 15.9841 22.8049C14.3253 22.8049 12.9528 23.7059 12.4055 25.1542C12.0097 26.1983 12.0729 27.3098 12.5865 28.2823C12.9486 28.9728 13.5338 29.5917 14.3632 30.1726C14.5863 30.3284 14.9274 30.5516 15.361 30.8294C15.5968 30.981 15.9378 31.2041 16.2746 31.4273C16.3251 31.461 16.5062 31.5957 16.5693 31.722C16.6409 31.8651 16.6409 32.0209 16.5356 32.3072C16.3588 32.6987 16.102 33.1787 15.7399 33.7092C14.6663 35.2795 13.1296 36.6099 11.1719 37.6709C10.132 38.2224 9.05422 38.5887 8.59952 39.8265C8.25429 40.7611 8.48164 41.8263 9.35313 42.7231C9.63942 43.0304 10.0015 43.3041 10.4562 43.5567C11.5256 44.1461 12.435 44.4366 13.1507 44.6345C13.277 44.6724 13.5675 44.765 13.6938 44.8787C14.0138 45.1565 13.9674 45.5775 14.3927 46.1922C14.6495 46.5753 14.9442 46.8364 15.1884 47.0048C16.0767 47.6195 17.0787 47.6573 18.1397 47.6994C19.0954 47.7373 20.1816 47.7794 21.4194 48.1878C21.933 48.3562 22.4677 48.6846 23.0824 49.0635C24.5644 49.9771 26.5979 51.2233 29.9954 51.2233C33.3972 51.2233 35.4391 49.9687 36.9337 49.0551C37.5484 48.6804 38.0789 48.352 38.5757 48.1878C39.8135 47.7794 40.8997 47.7373 41.8554 47.6994C42.9163 47.6573 43.9141 47.6195 44.8067 47.0048C45.0846 46.8111 45.4382 46.4953 45.7161 46.0154C46.0192 45.4975 46.015 45.1313 46.3013 44.8829C46.4192 44.7818 46.676 44.6934 46.8149 44.6513C47.5349 44.4534 48.4569 44.1629 49.5473 43.5609C50.0315 43.2956 50.4062 43.0051 50.7051 42.6725C50.7093 42.6683 50.7135 42.6641 50.7177 42.6599C51.5303 41.7758 51.7366 40.7443 51.3998 39.8307ZM48.3811 41.4516C46.5371 42.4705 45.3119 42.361 44.3604 42.9715C43.5521 43.4935 44.0278 44.6176 43.4426 45.0218C42.7185 45.5228 40.5839 44.9881 37.8263 45.8975C35.5528 46.6511 34.1003 48.8109 30.0039 48.8109C25.899 48.8109 24.4886 46.6595 22.1814 45.8975C19.4238 44.9881 17.285 45.5228 16.5651 45.0218C15.9799 44.6176 16.4556 43.4935 15.6473 42.9715C14.6958 42.3568 13.4706 42.4662 11.6266 41.4516C10.452 40.8032 11.1172 40.4033 11.5087 40.2138C18.186 36.9846 19.247 31.9914 19.2975 31.6167C19.3564 31.1705 19.4196 30.8168 18.927 30.3579C18.4512 29.9158 16.3335 28.6065 15.7483 28.1981C14.7758 27.5203 14.3506 26.8424 14.6663 26.0088C14.8853 25.432 15.4242 25.2173 15.9925 25.2173C16.1693 25.2173 16.3504 25.2384 16.523 25.2763C17.5882 25.5078 18.6239 26.0425 19.2217 26.1856C19.3059 26.2067 19.3775 26.2151 19.4406 26.2151C19.7606 26.2151 19.8701 26.0551 19.849 25.6889C19.7816 24.5226 19.6132 22.2492 19.7985 20.1231C20.0511 17.2012 20.9942 15.7529 22.1141 14.4688C22.653 13.8542 25.179 11.1849 30.0081 11.1849C34.8497 11.1849 37.3632 13.8542 37.9021 14.4688C39.022 15.7487 39.965 17.197 40.2176 20.1231C40.4029 22.2492 40.2429 24.5226 40.1671 25.6889C40.1419 26.072 40.2597 26.2151 40.5755 26.2151C40.6387 26.2151 40.7144 26.2067 40.7944 26.1856C41.3923 26.0425 42.428 25.5078 43.4931 25.2763C43.6657 25.2384 43.8468 25.2173 44.0236 25.2173C44.592 25.2173 45.1309 25.4362 45.3498 26.0088C45.6656 26.8424 45.2361 27.5203 44.2678 28.1981C43.6826 28.6065 41.5649 29.9158 41.0891 30.3579C40.5966 30.8126 40.6597 31.1662 40.7187 31.6167C40.765 31.9914 41.8301 36.9846 48.5074 40.2138C48.8863 40.4033 49.5557 40.8032 48.3811 41.4516Z" fill="black"/>
  </g>
  <defs>
    <clipPath id="clip0_4_412">
      <rect width="60" height="60" fill="white"/>
    </clipPath>
  </defs>
</svg>