<svg width="44" height="44" viewBox="0 0 44 44" fill="none" xmlns="http://www.w3.org/2000/svg">
<g clip-path="url(#clip0_2640_15668)">
<rect x="2" y="2" width="40" height="40" rx="6" fill="white"/>
<g clip-path="url(#clip1_2640_15668)">
<path d="M37 2H7C4.23858 2 2 4.23858 2 7V37C2 39.7614 4.23858 42 7 42H37C39.7614 42 42 39.7614 42 37V7C42 4.23858 39.7614 2 37 2Z" fill="black"/>
<path d="M19.2697 18.6202V17.5322C18.8967 17.4812 18.5177 17.4492 18.1307 17.4492C13.4707 17.4492 9.67969 21.2402 9.67969 25.9002C9.67969 28.7592 11.1087 31.2892 13.2877 32.8192C11.8807 31.3092 11.0177 29.2862 11.0177 27.0652C11.0177 22.4722 14.7017 18.7262 19.2697 18.6192V18.6202Z" fill="#25F4EE"/>
<path d="M19.4698 30.9245C21.5488 30.9245 23.2448 29.2705 23.3218 27.2105L23.3288 8.80953H26.6908C26.6208 8.43153 26.5828 8.04253 26.5828 7.64453H21.9908L21.9838 26.0455C21.9068 28.1065 20.2108 29.7595 18.1318 29.7595C17.4858 29.7595 16.8768 29.5975 16.3418 29.3165C17.0438 30.2885 18.1828 30.9255 19.4708 30.9255L19.4698 30.9245Z" fill="#25F4EE"/>
<path d="M32.9692 15.0531V14.0301C31.6872 14.0301 30.4922 13.6491 29.4902 12.9961C30.3822 14.0201 31.5942 14.7591 32.9692 15.0531Z" fill="#25F4EE"/>
<path d="M29.4914 12.9966C28.5144 11.8746 27.9204 10.4096 27.9204 8.80859H26.6904C27.0144 10.5576 28.0524 12.0586 29.4914 12.9966Z" fill="#FE2C55"/>
<path d="M18.1305 22.0403C16.0025 22.0403 14.2705 23.7713 14.2705 25.9003C14.2705 27.3823 15.1115 28.6703 16.3395 29.3163C15.8815 28.6823 15.6085 27.9053 15.6085 27.0653C15.6085 24.9373 17.3405 23.2053 19.4685 23.2053C19.8655 23.2053 20.2465 23.2713 20.6075 23.3833V18.6963C20.2345 18.6453 19.8555 18.6133 19.4685 18.6133C19.4015 18.6133 19.3355 18.6173 19.2685 18.6183V22.2183C18.9085 22.1053 18.5265 22.0403 18.1295 22.0403H18.1305Z" fill="#FE2C55"/>
<path d="M32.9701 15.0547V18.6237C30.5891 18.6237 28.3831 17.8617 26.5821 16.5697V25.9007C26.5821 30.5607 22.7911 34.3517 18.1311 34.3517C16.3301 34.3517 14.6601 33.7837 13.2881 32.8197C14.8321 34.4767 17.0311 35.5167 19.4701 35.5167C24.1301 35.5167 27.9211 31.7257 27.9211 27.0657V17.7347C29.7221 19.0277 31.9281 19.7887 34.3091 19.7887V15.1967C33.8501 15.1967 33.4021 15.1467 32.9711 15.0547H32.9701Z" fill="#FE2C55"/>
<path d="M26.5816 25.8996V16.5686C28.3826 17.8616 30.5886 18.6226 32.9696 18.6226V15.0536C31.5946 14.7596 30.3826 14.0206 29.4906 12.9966C28.0516 12.0586 27.0136 10.5576 26.6896 8.80859H23.3276L23.3206 27.2096C23.2436 29.2706 21.5476 30.9236 19.4686 30.9236C18.1806 30.9236 17.0416 30.2876 16.3396 29.3146C15.1106 28.6676 14.2706 27.3806 14.2706 25.8986C14.2706 23.7706 16.0026 22.0386 18.1306 22.0386C18.5276 22.0386 18.9086 22.1046 19.2696 22.2166V18.6166C14.7016 18.7236 11.0176 22.4696 11.0176 27.0626C11.0176 29.2846 11.8806 31.3066 13.2876 32.8166C14.6606 33.7806 16.3296 34.3486 18.1306 34.3486C22.7906 34.3486 26.5816 30.5576 26.5816 25.8976V25.8996Z" fill="white"/>
</g>
</g>
<rect x="1" y="1" width="42" height="42" rx="7" stroke="#2C303A" stroke-width="2"/>
<defs>
<clipPath id="clip0_2640_15668">
<rect x="2" y="2" width="40" height="40" rx="6" fill="white"/>
</clipPath>
<clipPath id="clip1_2640_15668">
<rect width="40" height="40" fill="white" transform="translate(2 2)"/>
</clipPath>
</defs>
</svg>
