<svg width="44" height="44" viewBox="0 0 44 44" fill="none" xmlns="http://www.w3.org/2000/svg">
<g clip-path="url(#clip0_2640_15599)">
<rect x="2" y="2" width="40" height="40" rx="6" fill="white"/>
<g clip-path="url(#clip1_2640_15599)">
<path d="M42 2H2V42H42V2Z" fill="#1D9BF0"/>
<path d="M17.3598 32.1598C26.7898 32.1598 31.9498 24.3398 31.9498 17.5698C31.9498 17.3498 31.9498 17.1298 31.9398 16.9098C32.9398 16.1898 33.8098 15.2798 34.4998 14.2498C33.5798 14.6598 32.5898 14.9298 31.5498 15.0598C32.6098 14.4298 33.4198 13.4198 33.8098 12.2198C32.8198 12.8098 31.7198 13.2298 30.5498 13.4598C29.6098 12.4598 28.2798 11.8398 26.8098 11.8398C23.9798 11.8398 21.6798 14.1398 21.6798 16.9698C21.6798 17.3698 21.7298 17.7598 21.8098 18.1398C17.5498 17.9298 13.7698 15.8798 11.2398 12.7798C10.7998 13.5398 10.5498 14.4198 10.5498 15.3598C10.5498 17.1398 11.4598 18.7098 12.8298 19.6298C11.9898 19.5998 11.1998 19.3698 10.5098 18.9898C10.5098 19.0098 10.5098 19.0298 10.5098 19.0598C10.5098 21.5398 12.2798 23.6198 14.6198 24.0898C14.1898 24.2098 13.7398 24.2698 13.2698 24.2698C12.9398 24.2698 12.6198 24.2398 12.3098 24.1798C12.9598 26.2198 14.8598 27.6998 17.0998 27.7398C15.3398 29.1198 13.1298 29.9398 10.7298 29.9398C10.3198 29.9398 9.90977 29.9198 9.50977 29.8698C11.7698 31.3098 14.4698 32.1598 17.3598 32.1598Z" fill="white"/>
</g>
</g>
<rect x="1" y="1" width="42" height="42" rx="7" stroke="#2C303A" stroke-width="2"/>
<defs>
<clipPath id="clip0_2640_15599">
<rect x="2" y="2" width="40" height="40" rx="6" fill="white"/>
</clipPath>
<clipPath id="clip1_2640_15599">
<rect width="40" height="40" fill="white" transform="translate(2 2)"/>
</clipPath>
</defs>
</svg>
