<svg width="44" height="44" viewBox="0 0 44 44" fill="none" xmlns="http://www.w3.org/2000/svg">
<rect x="1" y="1" width="42" height="42" rx="7" fill="white"/>
<g clip-path="url(#clip0_2640_15662)">
<path d="M37.5708 14.2634C37.1971 12.8804 36.0959 11.7914 34.6975 11.4217C32.1631 10.75 22 10.75 22 10.75C22 10.75 11.837 10.75 9.30245 11.4217C7.90416 11.7914 6.80284 12.8804 6.42913 14.2634C5.75 16.7701 5.75 22 5.75 22C5.75 22 5.75 27.2299 6.42913 29.7367C6.80284 31.1196 7.90416 32.2086 9.30245 32.5784C11.837 33.25 22 33.25 22 33.25C22 33.25 32.1631 33.25 34.6975 32.5784C36.0959 32.2086 37.1971 31.1196 37.5708 29.7367C38.25 27.2299 38.25 22 38.25 22C38.25 22 38.25 16.7701 37.5708 14.2634Z" fill="#ED1D24"/>
<path d="M18.6758 26.75L27.1701 22.0019L18.6758 17.2533V26.75Z" fill="white"/>
</g>
<rect x="1" y="1" width="42" height="42" rx="7" stroke="#2C303A" stroke-width="2"/>
<defs>
<clipPath id="clip0_2640_15662">
<rect width="32.5" height="22.5" fill="white" transform="translate(5.75 10.75)"/>
</clipPath>
</defs>
</svg>
